<?xml version="1.0" encoding="UTF-8" standalone="no"?>
<!DOCTYPE svg PUBLIC "-//W3C//DTD SVG 1.1//EN" "http://www.w3.org/Graphics/SVG/1.1/DTD/svg11.dtd">
<svg width="64" height="64" viewBox="0 0 64 64" version="1.1" xmlns="http://www.w3.org/2000/svg" xmlns:xlink="http://www.w3.org/1999/xlink" xml:space="preserve" xmlns:serif="http://www.serif.com/" style="fill-rule:evenodd;clip-rule:evenodd;stroke-linejoin:round;stroke-miterlimit:2;">
    <g transform="matrix(0.0800672,0,0,0.0735382,-81.89,-12.7614)">
        <path d="M1107.44,184.69L1207.84,173.535L1217.8,220.099L1169.07,225.256L1324.05,899.523L1372.5,893.341L1383.77,942.413L1285.18,955.492L1107.44,184.69Z" style="fill:rgb(33,29,30);"/>
    </g>
    <g transform="matrix(0.0800672,0,0,0.0735382,-81.89,-12.7614)">
        <path d="M1070.02,240.087L1107.44,184.69L1285.88,954.226L1383.77,941.426L1345.25,998.894L1245.6,1010.7L1070.02,240.087Z" style="fill:rgb(17,15,16);"/>
    </g>
    <g transform="matrix(0.0800672,0,0,0.0735382,-81.89,-12.7614)">
        <path d="M1372.4,892.684L1383.77,944.009L1421.43,888.758L1372.4,892.684Z" style="fill:rgb(17,15,16);"/>
    </g>
    <g transform="matrix(0.0800672,0,0,0.0735382,-81.89,-12.7614)">
        <path d="M1421.43,890.581L1411.45,841.24L1460.68,834.664L1421.43,890.581Z" style="fill:rgb(17,15,16);"/>
    </g>
    <g transform="matrix(0.0800672,0,0,0.0735382,-81.89,-12.7614)">
        <path d="M1460.62,835.576L1451.26,786.824L1498.31,784.596L1460.62,835.576Z" style="fill:rgb(17,15,16);"/>
    </g>
    <g transform="matrix(0.0800672,0,0,0.0735382,-81.89,-12.7614)">
        <path d="M1474.47,816.767L1498.31,784.596L1719.14,759.434L1698.78,792.498L1474.47,816.767Z" style="fill:rgb(150,150,150);"/>
    </g>
    <g transform="matrix(0.0800672,0,0,0.0735382,-81.89,-12.7614)">
        <path d="M1498.31,784.596L1489.62,732.407L1783.65,703.281L1745.35,757.169L1498.31,784.596Z" style="fill:rgb(17,15,16);"/>
    </g>
    <g transform="matrix(0.0800672,0,0,0.0735382,-81.89,-12.7614)">
        <path d="M1022.77,274.964L1062.05,217.096L1085.91,215.138L1070.02,240.479L1245.6,1009.94L1319.23,1001.73L1296.9,1032.43L1200.44,1043.83L1022.77,274.964Z" style="fill:rgb(150,150,150);"/>
    </g>
    <g transform="matrix(0.0800672,0,0,0.0735382,-81.89,-12.7614)">
        <path d="M1267.32,213.584L1277.7,260.939L1229.52,266.754L1217.47,220.231L1267.32,213.584Z" style="fill:rgb(33,29,30);"/>
    </g>
    <g transform="matrix(0.0800672,0,0,0.0735382,-81.89,-12.7614)">
        <path d="M1289.83,309.874L1278.6,261.681L1327.97,258.427L1338.51,305.661L1289.83,309.874Z" style="fill:rgb(33,29,30);"/>
    </g>
    <g transform="matrix(0.0800672,0,0,0.0735382,-81.89,-12.7614)">
        <path d="M1349.98,352.74L1338.51,305.884L1388.17,300.412L1399,347.736L1349.98,352.74Z" style="fill:rgb(33,29,30);"/>
    </g>
    <g transform="matrix(0.0800672,0,0,0.0735382,-81.89,-12.7614)">
        <path d="M1410.99,395.075L1399,348.015L1448.2,343.09L1459.17,390.314L1410.99,395.075Z" style="fill:rgb(33,29,30);"/>
    </g>
    <g transform="matrix(0.0800672,0,0,0.0735382,-81.89,-12.7614)">
        <path d="M1471.15,437.805L1459.17,390.592L1509.47,386.438L1519.18,433.054L1471.15,437.805Z" style="fill:rgb(33,29,30);"/>
    </g>
    <g transform="matrix(0.0800672,0,0,0.0735382,-81.89,-12.7614)">
        <path d="M1531.61,480.194L1520.52,433.121L1519.87,433.013L1569.1,429.213L1580.23,475.996L1531.61,480.194Z" style="fill:rgb(33,29,30);"/>
    </g>
    <g transform="matrix(0.0800672,0,0,0.0735382,-81.89,-12.7614)">
        <path d="M1591.57,522.935L1581.17,476.219L1629.66,471.482L1640.48,518.569L1591.57,522.935Z" style="fill:rgb(33,29,30);"/>
    </g>
    <g transform="matrix(0.0800672,0,0,0.0735382,-81.89,-12.7614)">
        <path d="M1652.44,566.241L1641.59,518.68L1690.34,513.685L1700.9,560.735L1652.44,566.241Z" style="fill:rgb(33,29,30);"/>
    </g>
    <g transform="matrix(0.0800672,0,0,0.0735382,-81.89,-12.7614)">
        <path d="M1712.63,608.717L1702.01,561.293L1750.85,556.576L1761.63,604.259L1712.63,608.717Z" style="fill:rgb(33,29,30);"/>
    </g>
    <g transform="matrix(0.0800672,0,0,0.0735382,-81.89,-12.7614)">
        <path d="M1772.5,653.612L1761.63,604.259L1811.4,599.787L1822.09,647.915L1772.5,653.612Z" style="fill:rgb(33,29,30);"/>
    </g>
    <g transform="matrix(0.0800672,0,0,0.0735382,-81.89,-12.7614)">
        <path d="M1476.95,684.588L1489.62,733.204L1783.65,703.33L1772.74,652.921L1476.95,684.588Z" style="fill:rgb(33,29,30);"/>
    </g>
    <g transform="matrix(0.0800672,0,0,0.0735382,-81.89,-12.7614)">
        <path d="M1438.71,738.36L1451.26,787.324L1499.44,784.596L1490.92,732.407L1438.71,738.36Z" style="fill:rgb(33,29,30);"/>
    </g>
    <g transform="matrix(0.0800672,0,0,0.0735382,-81.89,-12.7614)">
        <path d="M1400.61,791.725L1410.97,842.506L1460.62,835.258L1451.75,786.824L1400.61,791.725Z" style="fill:rgb(33,29,30);"/>
    </g>
    <g transform="matrix(0.0800672,0,0,0.0735382,-81.89,-12.7614)">
        <path d="M1361.71,845.175L1373.25,892.684L1421.43,889.01L1411.59,841.24L1361.71,845.175Z" style="fill:rgb(33,29,30);"/>
    </g>
    <g transform="matrix(0.0800672,0,0,0.0735382,-81.89,-12.7614)">
        <path d="M1772.5,652.921L1783.65,703.608L1822.09,647.915L1772.5,652.921Z" style="fill:rgb(17,15,16);"/>
    </g>
    <g transform="matrix(0.0800672,0,0,0.0735382,-81.89,-12.7614)">
        <path d="M1373.29,893.254L1324.22,899.715L1169.08,225.239L1217.47,220.093L1229.55,266.754L1278.24,260.721L1289.95,309.874L1338.51,305.619L1349.96,352.74L1398.96,347.735L1410.69,395.075L1459.17,390.241L1471.12,437.805L1520.41,432.86L1531.66,480.194L1581.17,475.783L1591.96,522.935L1641.59,518.442L1652.53,566.241L1701.81,560.602L1712.67,608.717L1761.63,604.196L1772.43,652.921L1476.95,684.639L1489.99,732.407L1438.71,738.351L1451.47,786.824L1400.61,791.705L1410.91,841.24L1361.71,845.321L1373.29,893.254Z" style="fill:rgb(192,0,118);"/>
    </g>
</svg>
