<?xml version="1.0" encoding="UTF-8" standalone="no"?>
<!DOCTYPE svg PUBLIC "-//W3C//DTD SVG 1.1//EN" "http://www.w3.org/Graphics/SVG/1.1/DTD/svg11.dtd">
<svg width="100%" height="100%" viewBox="0 0 420 171" version="1.1" xmlns="http://www.w3.org/2000/svg" xmlns:xlink="http://www.w3.org/1999/xlink" xml:space="preserve" xmlns:serif="http://www.serif.com/" style="fill-rule:evenodd;clip-rule:evenodd;stroke-linejoin:round;stroke-miterlimit:2;">
    <path d="M0,85.098C0,38.131 42.304,0 94.41,0C126.133,0 154.222,14.133 171.343,35.787L136.915,58.198C127.471,46.349 112.078,38.629 94.707,38.629C66.009,38.629 42.709,59.7 42.709,85.654" style="fill:rgb(192,0,118);"/>
    <path d="M42.709,85.654C42.709,111.607 66.009,132.679 94.707,132.679C110.936,132.679 125.438,125.94 134.977,115.391L168.861,137.405C151.575,157.359 124.642,170.195 94.41,170.195C42.304,170.195 0,132.064 0,85.098" style="fill:white;"/>
    <g transform="matrix(1,0,0,1,-13.8174,2.39132)">
        <path d="M125.85,95.981C124.819,96.411 123.78,96.797 122.735,97.141C121.689,97.485 120.608,97.782 119.49,98.033C118.373,98.283 117.195,98.473 115.956,98.602C114.717,98.731 113.389,98.795 111.971,98.795C108.963,98.795 106.195,98.473 103.667,97.829C101.139,97.184 98.962,96.214 97.136,94.918C95.31,93.621 93.888,92.003 92.871,90.062C91.854,88.121 91.346,85.855 91.346,83.262C91.346,80.67 91.854,78.403 92.871,76.462C93.888,74.522 95.31,72.903 97.136,71.607C98.962,70.311 101.139,69.34 103.667,68.696C106.195,68.051 108.963,67.729 111.971,67.729C113.389,67.729 114.717,67.794 115.956,67.922C117.195,68.051 118.373,68.241 119.49,68.492C120.608,68.742 121.689,69.04 122.735,69.383C123.78,69.727 124.819,70.114 125.85,70.544L125.85,77.719C125.033,77.275 124.174,76.835 123.272,76.398C122.369,75.961 121.374,75.567 120.285,75.216C119.197,74.865 118.001,74.579 116.698,74.357C115.394,74.135 113.926,74.024 112.293,74.024C109.787,74.024 107.706,74.282 106.052,74.797C104.398,75.313 103.076,76.001 102.088,76.86C101.1,77.719 100.405,78.704 100.004,79.814C99.603,80.924 99.403,82.073 99.403,83.262C99.403,84.05 99.489,84.827 99.66,85.593C99.832,86.36 100.119,87.083 100.52,87.763C100.921,88.444 101.444,89.07 102.088,89.643C102.733,90.216 103.535,90.71 104.494,91.126C105.454,91.541 106.575,91.867 107.857,92.103C109.139,92.339 110.617,92.458 112.293,92.458C113.926,92.458 115.394,92.354 116.698,92.146C118.001,91.938 119.197,91.663 120.285,91.319C121.374,90.975 122.369,90.585 123.272,90.148C124.174,89.711 125.033,89.264 125.85,88.805L125.85,95.981Z" style="fill:white;fill-rule:nonzero;"/>
        <path d="M171.483,83.262C171.483,85.797 171.017,88.035 170.086,89.976C169.155,91.917 167.823,93.539 166.09,94.842C164.357,96.146 162.255,97.13 159.784,97.796C157.314,98.462 154.539,98.795 151.459,98.795C148.38,98.795 145.598,98.462 143.113,97.796C140.628,97.13 138.511,96.146 136.764,94.842C135.017,93.539 133.67,91.917 132.725,89.976C131.78,88.035 131.307,85.797 131.307,83.262C131.307,80.727 131.78,78.489 132.725,76.548C133.67,74.608 135.017,72.986 136.764,71.682C138.511,70.379 140.628,69.394 143.113,68.728C145.598,68.062 148.38,67.729 151.459,67.729C154.539,67.729 157.314,68.062 159.784,68.728C162.255,69.394 164.357,70.379 166.09,71.682C167.823,72.986 169.155,74.608 170.086,76.548C171.017,78.489 171.483,80.727 171.483,83.262ZM163.426,83.262C163.426,82.159 163.251,81.06 162.9,79.964C162.549,78.869 161.926,77.884 161.031,77.01C160.135,76.137 158.914,75.428 157.367,74.883C155.821,74.339 153.851,74.067 151.459,74.067C149.855,74.067 148.444,74.192 147.227,74.443C146.009,74.694 144.957,75.041 144.069,75.485C143.181,75.929 142.436,76.448 141.834,77.043C141.233,77.637 140.753,78.274 140.395,78.955C140.037,79.635 139.782,80.344 139.632,81.082C139.482,81.819 139.407,82.546 139.407,83.262C139.407,83.993 139.482,84.73 139.632,85.475C139.782,86.22 140.037,86.933 140.395,87.613C140.753,88.293 141.233,88.927 141.834,89.514C142.436,90.101 143.181,90.613 144.069,91.05C144.957,91.487 146.009,91.831 147.227,92.082C148.444,92.332 149.855,92.458 151.459,92.458C153.851,92.458 155.821,92.185 157.367,91.641C158.914,91.097 160.135,90.388 161.031,89.514C161.926,88.641 162.549,87.656 162.9,86.56C163.251,85.464 163.426,84.365 163.426,83.262Z" style="fill:white;fill-rule:nonzero;"/>
        <path d="M214.903,83.219C214.903,85.11 214.695,86.789 214.28,88.257C213.864,89.725 213.281,91.004 212.529,92.092C211.777,93.181 210.874,94.105 209.822,94.864C208.769,95.623 207.598,96.232 206.309,96.69C205.02,97.148 203.63,97.481 202.141,97.689C200.651,97.897 199.097,98.001 197.479,98.001L178.744,98.001L178.744,68.481L197.436,68.481C199.054,68.481 200.608,68.585 202.098,68.793C203.587,69 204.98,69.333 206.277,69.792C207.573,70.25 208.751,70.855 209.811,71.607C210.871,72.359 211.777,73.283 212.529,74.378C213.281,75.474 213.864,76.752 214.28,78.213C214.695,79.674 214.903,81.343 214.903,83.219ZM206.867,83.219C206.867,81.801 206.685,80.57 206.32,79.524C205.954,78.478 205.367,77.615 204.558,76.935C203.749,76.255 202.692,75.746 201.389,75.41C200.086,75.073 198.496,74.905 196.619,74.905L186.715,74.905L186.715,91.577L196.619,91.577C198.496,91.577 200.086,91.408 201.389,91.072C202.692,90.735 203.749,90.22 204.558,89.525C205.367,88.83 205.954,87.96 206.32,86.915C206.685,85.869 206.867,84.637 206.867,83.219Z" style="fill:white;fill-rule:nonzero;"/>
        <path d="M222.164,98.001L222.164,68.481L252.049,68.481L252.049,74.776L230.35,74.776L230.35,79.653L250.932,79.653L250.932,85.948L230.35,85.948L230.35,91.706L252.35,91.706L252.35,98.001L222.164,98.001Z" style="fill:white;fill-rule:nonzero;"/>
        <path d="M287.928,98.001L268.012,77.719L268.012,98.001L260.041,98.001L260.041,68.481L268.699,68.481L288.637,88.848L288.637,68.481L296.565,68.481L296.565,98.001L287.928,98.001Z" style="fill:white;fill-rule:nonzero;"/>
        <path d="M322.346,74.905L322.346,98.001L314.375,98.001L314.375,74.905L301.85,74.905L301.85,68.481L334.893,68.481L334.893,74.905L322.346,74.905Z" style="fill:white;fill-rule:nonzero;"/>
        <path d="M348.127,98.001L340.157,98.001L340.157,68.481L360.137,68.481C362.285,68.481 364.108,68.703 365.605,69.147C367.101,69.591 368.319,70.221 369.257,71.038C370.195,71.854 370.876,72.839 371.298,73.992C371.721,75.145 371.932,76.43 371.932,77.848C371.932,79.094 371.756,80.183 371.406,81.114C371.055,82.045 370.582,82.843 369.988,83.509C369.393,84.175 368.702,84.738 367.914,85.196C367.127,85.654 366.296,86.034 365.422,86.335L375.09,98.001L365.766,98.001L356.828,87.129L348.127,87.129L348.127,98.001ZM363.875,77.805C363.875,77.232 363.8,76.745 363.65,76.344C363.499,75.943 363.238,75.617 362.865,75.367C362.493,75.116 361.995,74.933 361.372,74.819C360.749,74.704 359.972,74.647 359.041,74.647L348.127,74.647L348.127,80.963L359.041,80.963C359.972,80.963 360.749,80.906 361.372,80.792C361.995,80.677 362.493,80.494 362.865,80.244C363.238,79.993 363.499,79.667 363.65,79.266C363.8,78.865 363.875,78.378 363.875,77.805Z" style="fill:white;fill-rule:nonzero;"/>
        <rect x="380.805" y="68.481" width="7.971" height="29.52" style="fill:white;fill-rule:nonzero;"/>
        <path d="M421.733,92.415L405.276,92.415L402.504,98.001L393.61,98.001L409.057,68.481L417.951,68.481L433.399,98.001L424.504,98.001L421.733,92.415ZM408.133,86.657L418.918,86.657L413.547,75.786L408.133,86.657Z" style="fill:white;fill-rule:nonzero;"/>
    </g>
    <g transform="matrix(1,0,0,1,20.5936,-14.8444)">
        <path d="M201.178,132.491C200.924,132.367 200.589,132.227 200.172,132.071C199.756,131.915 199.284,131.766 198.756,131.626C198.229,131.486 197.656,131.369 197.037,131.275C196.419,131.181 195.784,131.133 195.133,131.133C194.612,131.133 194.168,131.15 193.8,131.182C193.432,131.215 193.123,131.257 192.872,131.309C192.622,131.361 192.423,131.421 192.277,131.49C192.13,131.558 192.018,131.628 191.94,131.7C191.862,131.771 191.811,131.843 191.788,131.915C191.766,131.986 191.754,132.051 191.754,132.11C191.754,132.305 191.852,132.476 192.047,132.623C192.243,132.769 192.509,132.899 192.848,133.013C193.187,133.127 193.58,133.235 194.03,133.335C194.479,133.436 194.956,133.541 195.46,133.648C195.965,133.755 196.486,133.873 197.023,134C197.56,134.126 198.081,134.275 198.585,134.444C199.09,134.613 199.567,134.81 200.016,135.035C200.465,135.259 200.859,135.521 201.198,135.821C201.536,136.12 201.803,136.465 201.998,136.856C202.194,137.247 202.291,137.693 202.291,138.194C202.291,138.838 202.177,139.392 201.95,139.854C201.722,140.316 201.417,140.707 201.037,141.026C200.656,141.345 200.215,141.6 199.713,141.792C199.212,141.985 198.686,142.133 198.136,142.237C197.586,142.341 197.029,142.409 196.466,142.442C195.903,142.474 195.368,142.491 194.86,142.491C193.532,142.491 192.303,142.382 191.173,142.164C190.044,141.945 189.046,141.674 188.18,141.348L188.18,138.145C189.072,138.64 190.089,139.027 191.232,139.307C192.374,139.587 193.597,139.727 194.899,139.727C195.667,139.727 196.294,139.686 196.779,139.605C197.264,139.524 197.643,139.419 197.916,139.292C198.19,139.166 198.375,139.027 198.473,138.877C198.571,138.728 198.62,138.584 198.62,138.448C198.62,138.233 198.522,138.046 198.327,137.886C198.131,137.727 197.864,137.587 197.526,137.466C197.187,137.346 196.793,137.235 196.344,137.134C195.895,137.033 195.418,136.932 194.913,136.832C194.409,136.731 193.89,136.622 193.356,136.504C192.822,136.387 192.303,136.249 191.798,136.089C191.294,135.93 190.817,135.744 190.368,135.533C189.918,135.321 189.524,135.07 189.186,134.781C188.847,134.491 188.58,134.156 188.385,133.775C188.19,133.394 188.092,132.953 188.092,132.452C188.092,131.859 188.196,131.348 188.405,130.918C188.613,130.489 188.895,130.123 189.249,129.82C189.604,129.517 190.014,129.271 190.48,129.083C190.945,128.894 191.435,128.747 191.95,128.643C192.464,128.539 192.985,128.467 193.512,128.428C194.039,128.389 194.541,128.37 195.016,128.37C195.537,128.37 196.072,128.396 196.622,128.448C197.173,128.5 197.715,128.573 198.248,128.667C198.782,128.762 199.298,128.871 199.796,128.995C200.294,129.118 200.755,129.249 201.178,129.385L201.178,132.491Z" style="fill:rgb(192,0,118);fill-rule:nonzero;"/>
        <path d="M213.239,131.631L213.239,142.129L209.616,142.129L209.616,131.631L203.922,131.631L203.922,128.711L218.942,128.711L218.942,131.631L213.239,131.631Z" style="fill:rgb(192,0,118);fill-rule:nonzero;"/>
        <path d="M237.174,137.608C237.174,138.278 237.008,138.91 236.676,139.502C236.344,140.095 235.846,140.612 235.182,141.055C234.518,141.498 233.689,141.848 232.697,142.105C231.704,142.362 230.543,142.491 229.215,142.491C227.887,142.491 226.723,142.362 225.724,142.105C224.725,141.848 223.893,141.498 223.229,141.055C222.565,140.612 222.067,140.095 221.735,139.502C221.403,138.91 221.237,138.278 221.237,137.608L221.237,128.711L224.85,128.711L224.85,136.309C224.85,136.758 224.907,137.183 225.021,137.584C225.135,137.984 225.35,138.334 225.665,138.633C225.981,138.933 226.424,139.17 226.994,139.346C227.563,139.522 228.304,139.61 229.215,139.61C230.12,139.61 230.856,139.522 231.422,139.346C231.989,139.17 232.43,138.933 232.745,138.633C233.061,138.334 233.274,137.984 233.385,137.584C233.496,137.183 233.551,136.758 233.551,136.309L233.551,128.711L237.174,128.711L237.174,137.608Z" style="fill:rgb(192,0,118);fill-rule:nonzero;"/>
        <path d="M257.711,135.411C257.711,136.27 257.617,137.033 257.428,137.701C257.239,138.368 256.974,138.949 256.632,139.444C256.29,139.939 255.88,140.359 255.402,140.704C254.923,141.049 254.391,141.325 253.805,141.534C253.219,141.742 252.588,141.893 251.911,141.988C251.233,142.082 250.527,142.129 249.791,142.129L241.276,142.129L241.276,128.711L249.772,128.711C250.508,128.711 251.214,128.759 251.891,128.853C252.568,128.947 253.201,129.099 253.79,129.307C254.38,129.515 254.915,129.791 255.397,130.132C255.879,130.474 256.29,130.894 256.632,131.392C256.974,131.89 257.239,132.471 257.428,133.135C257.617,133.799 257.711,134.558 257.711,135.411ZM254.059,135.411C254.059,134.766 253.976,134.206 253.81,133.731C253.644,133.256 253.377,132.863 253.009,132.554C252.641,132.245 252.161,132.014 251.569,131.861C250.976,131.708 250.254,131.631 249.401,131.631L244.899,131.631L244.899,139.209L249.401,139.209C250.254,139.209 250.976,139.133 251.569,138.98C252.161,138.827 252.641,138.593 253.009,138.277C253.377,137.961 253.644,137.566 253.81,137.09C253.976,136.615 254.059,136.055 254.059,135.411Z" style="fill:rgb(192,0,118);fill-rule:nonzero;"/>
        <rect x="261.012" y="128.711" width="3.623" height="13.418" style="fill:rgb(192,0,118);fill-rule:nonzero;"/>
        <path d="M286.198,135.43C286.198,136.583 285.986,137.6 285.563,138.482C285.14,139.364 284.534,140.101 283.746,140.694C282.959,141.286 282.003,141.734 280.88,142.037C279.757,142.339 278.496,142.491 277.096,142.491C275.696,142.491 274.432,142.339 273.302,142.037C272.173,141.734 271.211,141.286 270.416,140.694C269.622,140.101 269.01,139.364 268.58,138.482C268.151,137.6 267.936,136.583 267.936,135.43C267.936,134.278 268.151,133.261 268.58,132.378C269.01,131.496 269.622,130.759 270.416,130.167C271.211,129.574 272.173,129.126 273.302,128.824C274.432,128.521 275.696,128.37 277.096,128.37C278.496,128.37 279.757,128.521 280.88,128.824C282.003,129.126 282.959,129.574 283.746,130.167C284.534,130.759 285.14,131.496 285.563,132.378C285.986,133.261 286.198,134.278 286.198,135.43ZM282.536,135.43C282.536,134.929 282.456,134.429 282.296,133.931C282.137,133.433 281.854,132.986 281.447,132.588C281.04,132.191 280.485,131.869 279.782,131.622C279.078,131.374 278.183,131.25 277.096,131.25C276.367,131.25 275.726,131.307 275.172,131.421C274.619,131.535 274.14,131.693 273.737,131.895C273.333,132.097 272.995,132.333 272.721,132.603C272.448,132.873 272.23,133.163 272.067,133.472C271.904,133.781 271.788,134.104 271.72,134.439C271.652,134.774 271.618,135.105 271.618,135.43C271.618,135.762 271.652,136.098 271.72,136.436C271.788,136.775 271.904,137.098 272.067,137.408C272.23,137.717 272.448,138.005 272.721,138.272C272.995,138.539 273.333,138.772 273.737,138.97C274.14,139.169 274.619,139.325 275.172,139.439C275.726,139.553 276.367,139.61 277.096,139.61C278.183,139.61 279.078,139.486 279.782,139.239C280.485,138.991 281.04,138.669 281.447,138.272C281.854,137.875 282.137,137.427 282.296,136.929C282.456,136.431 282.536,135.931 282.536,135.43Z" style="fill:rgb(192,0,118);fill-rule:nonzero;"/>
    </g>
</svg>
