<?xml version="1.0" encoding="UTF-8" standalone="no"?>
<!DOCTYPE svg PUBLIC "-//W3C//DTD SVG 1.1//EN" "http://www.w3.org/Graphics/SVG/1.1/DTD/svg11.dtd">
<svg width="100%" height="100%" viewBox="0 0 418 171" version="1.1" xmlns="http://www.w3.org/2000/svg" xmlns:xlink="http://www.w3.org/1999/xlink" xml:space="preserve" xmlns:serif="http://www.serif.com/" style="fill-rule:evenodd;clip-rule:evenodd;stroke-linejoin:round;stroke-miterlimit:2;">
    <g transform="matrix(1,0,0,1,-16.0271,1.8353)">
        <path d="M125.85,95.981C124.819,96.411 123.78,96.797 122.735,97.141C121.689,97.485 120.608,97.782 119.49,98.033C118.373,98.283 117.195,98.473 115.956,98.602C114.717,98.731 113.389,98.795 111.971,98.795C108.963,98.795 106.195,98.473 103.667,97.829C101.139,97.184 98.962,96.214 97.136,94.918C95.31,93.621 93.888,92.003 92.871,90.062C91.854,88.121 91.346,85.855 91.346,83.262C91.346,80.67 91.854,78.403 92.871,76.462C93.888,74.522 95.31,72.903 97.136,71.607C98.962,70.311 101.139,69.34 103.667,68.696C106.195,68.051 108.963,67.729 111.971,67.729C113.389,67.729 114.717,67.794 115.956,67.922C117.195,68.051 118.373,68.241 119.49,68.492C120.608,68.742 121.689,69.04 122.735,69.383C123.78,69.727 124.819,70.114 125.85,70.544L125.85,77.719C125.033,77.275 124.174,76.835 123.272,76.398C122.369,75.961 121.374,75.567 120.285,75.216C119.197,74.865 118.001,74.579 116.698,74.357C115.394,74.135 113.926,74.024 112.293,74.024C109.787,74.024 107.706,74.282 106.052,74.797C104.398,75.313 103.076,76.001 102.088,76.86C101.1,77.719 100.405,78.704 100.004,79.814C99.603,80.924 99.403,82.073 99.403,83.262C99.403,84.05 99.489,84.827 99.66,85.593C99.832,86.36 100.119,87.083 100.52,87.763C100.921,88.444 101.444,89.07 102.088,89.643C102.733,90.216 103.535,90.71 104.494,91.126C105.454,91.541 106.575,91.867 107.857,92.103C109.139,92.339 110.617,92.458 112.293,92.458C113.926,92.458 115.394,92.354 116.698,92.146C118.001,91.938 119.197,91.663 120.285,91.319C121.374,90.975 122.369,90.585 123.272,90.148C124.174,89.711 125.033,89.264 125.85,88.805L125.85,95.981Z" style="fill-rule:nonzero;"/>
        <path d="M171.483,83.262C171.483,85.797 171.017,88.035 170.086,89.976C169.155,91.917 167.823,93.539 166.09,94.842C164.357,96.146 162.255,97.13 159.784,97.796C157.314,98.462 154.539,98.795 151.459,98.795C148.38,98.795 145.598,98.462 143.113,97.796C140.628,97.13 138.511,96.146 136.764,94.842C135.017,93.539 133.67,91.917 132.725,89.976C131.78,88.035 131.307,85.797 131.307,83.262C131.307,80.727 131.78,78.489 132.725,76.548C133.67,74.608 135.017,72.986 136.764,71.682C138.511,70.379 140.628,69.394 143.113,68.728C145.598,68.062 148.38,67.729 151.459,67.729C154.539,67.729 157.314,68.062 159.784,68.728C162.255,69.394 164.357,70.379 166.09,71.682C167.823,72.986 169.155,74.608 170.086,76.548C171.017,78.489 171.483,80.727 171.483,83.262ZM163.426,83.262C163.426,82.159 163.251,81.06 162.9,79.964C162.549,78.869 161.926,77.884 161.031,77.01C160.135,76.137 158.914,75.428 157.367,74.883C155.821,74.339 153.851,74.067 151.459,74.067C149.855,74.067 148.444,74.192 147.227,74.443C146.009,74.694 144.957,75.041 144.069,75.485C143.181,75.929 142.436,76.448 141.834,77.043C141.233,77.637 140.753,78.274 140.395,78.955C140.037,79.635 139.782,80.344 139.632,81.082C139.482,81.819 139.407,82.546 139.407,83.262C139.407,83.993 139.482,84.73 139.632,85.475C139.782,86.22 140.037,86.933 140.395,87.613C140.753,88.293 141.233,88.927 141.834,89.514C142.436,90.101 143.181,90.613 144.069,91.05C144.957,91.487 146.009,91.831 147.227,92.082C148.444,92.332 149.855,92.458 151.459,92.458C153.851,92.458 155.821,92.185 157.367,91.641C158.914,91.097 160.135,90.388 161.031,89.514C161.926,88.641 162.549,87.656 162.9,86.56C163.251,85.464 163.426,84.365 163.426,83.262Z" style="fill-rule:nonzero;"/>
        <path d="M214.903,83.219C214.903,85.11 214.695,86.789 214.28,88.257C213.864,89.725 213.281,91.004 212.529,92.092C211.777,93.181 210.874,94.105 209.822,94.864C208.769,95.623 207.598,96.232 206.309,96.69C205.02,97.148 203.63,97.481 202.141,97.689C200.651,97.897 199.097,98.001 197.479,98.001L178.744,98.001L178.744,68.481L197.436,68.481C199.054,68.481 200.608,68.585 202.098,68.793C203.587,69 204.98,69.333 206.277,69.792C207.573,70.25 208.751,70.855 209.811,71.607C210.871,72.359 211.777,73.283 212.529,74.378C213.281,75.474 213.864,76.752 214.28,78.213C214.695,79.674 214.903,81.343 214.903,83.219ZM206.867,83.219C206.867,81.801 206.685,80.57 206.32,79.524C205.954,78.478 205.367,77.615 204.558,76.935C203.749,76.255 202.692,75.746 201.389,75.41C200.086,75.073 198.496,74.905 196.619,74.905L186.715,74.905L186.715,91.577L196.619,91.577C198.496,91.577 200.086,91.408 201.389,91.072C202.692,90.735 203.749,90.22 204.558,89.525C205.367,88.83 205.954,87.96 206.32,86.915C206.685,85.869 206.867,84.637 206.867,83.219Z" style="fill-rule:nonzero;"/>
        <path d="M222.164,98.001L222.164,68.481L252.049,68.481L252.049,74.776L230.35,74.776L230.35,79.653L250.932,79.653L250.932,85.948L230.35,85.948L230.35,91.706L252.35,91.706L252.35,98.001L222.164,98.001Z" style="fill-rule:nonzero;"/>
        <path d="M287.928,98.001L268.012,77.719L268.012,98.001L260.041,98.001L260.041,68.481L268.699,68.481L288.637,88.848L288.637,68.481L296.565,68.481L296.565,98.001L287.928,98.001Z" style="fill-rule:nonzero;"/>
        <path d="M322.346,74.905L322.346,98.001L314.375,98.001L314.375,74.905L301.85,74.905L301.85,68.481L334.893,68.481L334.893,74.905L322.346,74.905Z" style="fill-rule:nonzero;"/>
        <path d="M348.127,98.001L340.157,98.001L340.157,68.481L360.137,68.481C362.285,68.481 364.108,68.703 365.605,69.147C367.101,69.591 368.319,70.221 369.257,71.038C370.195,71.854 370.876,72.839 371.298,73.992C371.721,75.145 371.932,76.43 371.932,77.848C371.932,79.094 371.756,80.183 371.406,81.114C371.055,82.045 370.582,82.843 369.988,83.509C369.393,84.175 368.702,84.738 367.914,85.196C367.127,85.654 366.296,86.034 365.422,86.335L375.09,98.001L365.766,98.001L356.828,87.129L348.127,87.129L348.127,98.001ZM363.875,77.805C363.875,77.232 363.8,76.745 363.65,76.344C363.499,75.943 363.238,75.617 362.865,75.367C362.493,75.116 361.995,74.933 361.372,74.819C360.749,74.704 359.972,74.647 359.041,74.647L348.127,74.647L348.127,80.963L359.041,80.963C359.972,80.963 360.749,80.906 361.372,80.792C361.995,80.677 362.493,80.494 362.865,80.244C363.238,79.993 363.499,79.667 363.65,79.266C363.8,78.865 363.875,78.378 363.875,77.805Z" style="fill-rule:nonzero;"/>
        <rect x="380.805" y="68.481" width="7.971" height="29.52" style="fill-rule:nonzero;"/>
        <path d="M421.733,92.415L405.276,92.415L402.504,98.001L393.61,98.001L409.057,68.481L417.951,68.481L433.399,98.001L424.504,98.001L421.733,92.415ZM408.133,86.657L418.918,86.657L413.547,75.786L408.133,86.657Z" style="fill-rule:nonzero;"/>
    </g>
    <g transform="matrix(1,0,0,1,20.5018,-15.4005)">
        <path d="M202.142,131.848C201.871,131.716 201.514,131.567 201.069,131.4C200.625,131.234 200.121,131.076 199.559,130.926C198.996,130.777 198.385,130.652 197.726,130.551C197.066,130.451 196.389,130.4 195.694,130.4C195.139,130.4 194.665,130.418 194.273,130.452C193.88,130.487 193.55,130.532 193.283,130.588C193.016,130.643 192.804,130.708 192.648,130.78C192.491,130.853 192.371,130.928 192.288,131.004C192.205,131.081 192.151,131.157 192.127,131.234C192.102,131.31 192.09,131.379 192.09,131.442C192.09,131.65 192.194,131.833 192.403,131.989C192.611,132.145 192.896,132.284 193.257,132.405C193.618,132.527 194.038,132.642 194.517,132.749C194.996,132.857 195.505,132.968 196.043,133.083C196.582,133.197 197.137,133.322 197.71,133.458C198.283,133.593 198.838,133.751 199.377,133.931C199.915,134.112 200.424,134.322 200.903,134.562C201.382,134.801 201.802,135.081 202.163,135.4C202.524,135.72 202.809,136.088 203.017,136.504C203.226,136.921 203.33,137.397 203.33,137.931C203.33,138.619 203.208,139.209 202.965,139.702C202.722,140.195 202.398,140.612 201.991,140.952C201.585,141.293 201.115,141.565 200.58,141.77C200.045,141.975 199.484,142.133 198.898,142.244C198.311,142.355 197.717,142.428 197.116,142.463C196.516,142.497 195.944,142.515 195.403,142.515C193.986,142.515 192.675,142.398 191.47,142.166C190.266,141.933 189.201,141.643 188.278,141.296L188.278,137.879C189.229,138.407 190.314,138.82 191.533,139.119C192.752,139.418 194.055,139.567 195.444,139.567C196.264,139.567 196.932,139.523 197.45,139.437C197.967,139.35 198.371,139.239 198.663,139.103C198.955,138.968 199.153,138.82 199.257,138.661C199.361,138.501 199.413,138.348 199.413,138.202C199.413,137.973 199.309,137.773 199.101,137.603C198.892,137.433 198.608,137.284 198.246,137.155C197.885,137.027 197.465,136.909 196.986,136.801C196.507,136.694 195.998,136.586 195.46,136.478C194.922,136.371 194.368,136.254 193.799,136.129C193.229,136.004 192.675,135.857 192.137,135.687C191.599,135.517 191.09,135.319 190.611,135.093C190.132,134.867 189.712,134.6 189.351,134.291C188.99,133.982 188.705,133.624 188.496,133.218C188.288,132.812 188.184,132.341 188.184,131.806C188.184,131.175 188.295,130.629 188.517,130.171C188.74,129.713 189.04,129.322 189.418,128.999C189.797,128.676 190.234,128.414 190.731,128.213C191.227,128.011 191.75,127.855 192.299,127.744C192.847,127.633 193.403,127.556 193.965,127.515C194.528,127.473 195.062,127.452 195.569,127.452C196.125,127.452 196.696,127.48 197.283,127.536C197.87,127.591 198.448,127.669 199.017,127.77C199.587,127.871 200.137,127.987 200.668,128.119C201.2,128.251 201.691,128.39 202.142,128.536L202.142,131.848Z" style="fill:rgb(210,11,126);fill-rule:nonzero;"/>
        <path d="M215.007,130.931L215.007,142.129L211.142,142.129L211.142,130.931L205.069,130.931L205.069,127.817L221.09,127.817L221.09,130.931L215.007,130.931Z" style="fill:rgb(210,11,126);fill-rule:nonzero;"/>
        <path d="M240.538,137.306C240.538,138.022 240.361,138.695 240.007,139.327C239.653,139.959 239.121,140.511 238.413,140.984C237.705,141.456 236.821,141.829 235.762,142.103C234.703,142.378 233.465,142.515 232.049,142.515C230.632,142.515 229.391,142.378 228.325,142.103C227.259,141.829 226.371,141.456 225.663,140.984C224.955,140.511 224.424,139.959 224.069,139.327C223.715,138.695 223.538,138.022 223.538,137.306L223.538,127.817L227.392,127.817L227.392,135.921C227.392,136.4 227.453,136.853 227.575,137.28C227.696,137.708 227.925,138.081 228.262,138.4C228.599,138.72 229.071,138.973 229.679,139.161C230.286,139.348 231.076,139.442 232.049,139.442C233.014,139.442 233.799,139.348 234.403,139.161C235.007,138.973 235.477,138.72 235.814,138.4C236.151,138.081 236.378,137.708 236.496,137.28C236.615,136.853 236.674,136.4 236.674,135.921L236.674,127.817L240.538,127.817L240.538,137.306Z" style="fill:rgb(210,11,126);fill-rule:nonzero;"/>
        <path d="M262.444,134.963C262.444,135.879 262.344,136.694 262.142,137.405C261.941,138.117 261.658,138.737 261.293,139.265C260.929,139.793 260.491,140.241 259.981,140.609C259.47,140.977 258.903,141.272 258.278,141.494C257.653,141.716 256.979,141.878 256.257,141.978C255.535,142.079 254.781,142.129 253.996,142.129L244.913,142.129L244.913,127.817L253.976,127.817C254.76,127.817 255.514,127.867 256.236,127.968C256.958,128.069 257.634,128.23 258.262,128.452C258.891,128.675 259.462,128.968 259.976,129.333C260.49,129.697 260.929,130.145 261.293,130.676C261.658,131.208 261.941,131.827 262.142,132.536C262.344,133.244 262.444,134.053 262.444,134.963ZM258.549,134.963C258.549,134.275 258.46,133.678 258.283,133.171C258.106,132.664 257.821,132.246 257.429,131.916C257.036,131.586 256.524,131.339 255.892,131.176C255.26,131.013 254.49,130.931 253.58,130.931L248.778,130.931L248.778,139.015L253.58,139.015C254.49,139.015 255.26,138.933 255.892,138.77C256.524,138.607 257.036,138.357 257.429,138.02C257.821,137.683 258.106,137.261 258.283,136.754C258.46,136.247 258.549,135.65 258.549,134.963Z" style="fill:rgb(210,11,126);fill-rule:nonzero;"/>
        <rect x="265.965" y="127.817" width="3.865" height="14.313" style="fill:rgb(210,11,126);fill-rule:nonzero;"/>
        <path d="M292.83,134.984C292.83,136.213 292.604,137.298 292.153,138.239C291.701,139.18 291.055,139.966 290.215,140.598C289.375,141.23 288.356,141.708 287.158,142.03C285.96,142.353 284.615,142.515 283.121,142.515C281.628,142.515 280.279,142.353 279.075,142.03C277.87,141.708 276.844,141.23 275.996,140.598C275.149,139.966 274.496,139.18 274.038,138.239C273.58,137.298 273.351,136.213 273.351,134.984C273.351,133.754 273.58,132.669 274.038,131.728C274.496,130.787 275.149,130.001 275.996,129.369C276.844,128.737 277.87,128.26 279.075,127.937C280.279,127.614 281.628,127.452 283.121,127.452C284.615,127.452 285.96,127.614 287.158,127.937C288.356,128.26 289.375,128.737 290.215,129.369C291.055,130.001 291.701,130.787 292.153,131.728C292.604,132.669 292.83,133.754 292.83,134.984ZM288.924,134.984C288.924,134.449 288.838,133.916 288.668,133.385C288.498,132.853 288.196,132.376 287.762,131.952C287.328,131.529 286.736,131.185 285.986,130.921C285.236,130.657 284.281,130.525 283.121,130.525C282.344,130.525 281.66,130.586 281.069,130.708C280.479,130.829 279.969,130.997 279.538,131.213C279.108,131.428 278.746,131.68 278.455,131.968C278.163,132.256 277.93,132.565 277.757,132.895C277.583,133.225 277.46,133.569 277.387,133.926C277.314,134.284 277.278,134.636 277.278,134.984C277.278,135.338 277.314,135.695 277.387,136.056C277.46,136.418 277.583,136.763 277.757,137.093C277.93,137.423 278.163,137.73 278.455,138.015C278.746,138.3 279.108,138.548 279.538,138.76C279.969,138.971 280.479,139.138 281.069,139.26C281.66,139.381 282.344,139.442 283.121,139.442C284.281,139.442 285.236,139.31 285.986,139.046C286.736,138.782 287.328,138.438 287.762,138.015C288.196,137.591 288.498,137.114 288.668,136.583C288.838,136.051 288.924,135.518 288.924,134.984Z" style="fill:rgb(210,11,126);fill-rule:nonzero;"/>
    </g>
    <g id="c">
        <path d="M134.128,55.825C124.701,45.62 110.448,39.111 94.51,39.111C78.728,39.111 64.598,45.493 55.169,55.528L17.605,35.65C34.755,14.072 62.822,0 94.51,0C126.349,0 154.532,14.207 171.656,35.955L134.128,55.825Z" style="fill:rgb(210,11,126);"/>
        <path d="M9.036,48.764L46.534,68.607C44.332,73.729 43.126,79.288 43.126,85.098C43.126,110.478 66.15,131.084 94.51,131.084C110.241,131.084 124.33,124.743 133.76,114.764L171.334,134.647C154.172,156.169 126.145,170.195 94.51,170.195C42.348,170.195 0,132.064 0,85.098C0,72.102 3.242,59.783 9.036,48.764Z" style="fill:rgb(23,25,23);"/>
    </g>
</svg>
