<?xml version="1.0" encoding="UTF-8" standalone="no"?>
<!DOCTYPE svg PUBLIC "-//W3C//DTD SVG 1.1//EN" "http://www.w3.org/Graphics/SVG/1.1/DTD/svg11.dtd">
<svg width="100%" height="100%" viewBox="0 0 860 880" version="1.1" xmlns="http://www.w3.org/2000/svg" xmlns:xlink="http://www.w3.org/1999/xlink" xml:space="preserve" xmlns:serif="http://www.serif.com/" style="fill-rule:evenodd;clip-rule:evenodd;stroke-linejoin:round;stroke-miterlimit:2;">
    <path id="_1" serif:id="1" d="M324.365,156.41C347.151,112.66 376.239,73.163 414.164,39.631C515.603,117.623 584.04,239.594 571.694,401.708C552.806,397.459 533.917,391.758 515.029,384.481C514.085,354.534 515.44,325.427 509.887,297.125C497.561,234.302 470.84,179.565 418.712,120.192L397.72,142.827L324.365,156.41Z" style="fill:rgb(216,27,96);"/>
    <path id="_2" serif:id="2" d="M499.348,457.057L555.146,474.271C523.727,594.23 415.355,704.82 280.347,740.604C258.671,727.614 238.983,711.972 220.671,694.496C353.976,671.093 459.257,587.453 499.348,457.057Z" style="fill:rgb(216,27,96);"/>
    <path id="_3" serif:id="3" d="M179.8,754.019C136.355,755.437 88.028,748.772 36.734,730.566C60.646,591.347 134.655,481.005 279.679,415.799L294.622,471.672C185.787,524.799 134.37,601.848 106.307,688.63L127.442,693.024C142.091,714.24 160.665,735.606 179.8,754.019Z" style="fill:rgb(216,27,96);"/>
    <path id="_4" serif:id="4" d="M352.654,393.615C354.276,414.258 359.283,432.817 368.194,448.973C493.488,429.267 613.406,475.123 692.723,565.383L703.534,489.707C593.194,397.525 475.89,368.612 352.654,393.615Z" style="fill:rgb(216,27,96);"/>
    <path id="_5" serif:id="5" d="M766.306,565.383C759.262,592.971 752.195,619.059 741.788,642.722L751.767,666.838C646.905,688.535 561.107,662.789 487.089,617.75L444.602,660.19C541.31,734.129 710.323,758.643 822.868,705.507C809.161,645.567 788.426,601.769 766.306,565.383Z" style="fill:rgb(216,27,96);"/>
    <path id="_7" serif:id="7" d="M389.011,610.724L430,571.204C336.217,457.73 320.104,340.523 359.016,220.669L290.921,246.548C257.902,372.781 295.317,505.384 389.011,610.724Z" style="fill:rgb(216,27,96);"/>
    <path id="k1" d="M536.133,171.372C548.2,197.001 558.126,222.019 565.727,246.373C739.773,359.509 740.011,543.437 652.89,667.503C675.565,668.001 698.24,667.778 720.915,666.504C833.318,456.278 718.985,234.888 536.133,171.372Z"/>
    <path id="k2" d="M589.356,733.033L660.873,743.012C497.6,898.341 241.861,864.436 120.495,669.542C128.391,646.478 139.143,625.161 152.188,605.245C206.31,714.019 284.896,766.436 375.166,780.696C437.458,790.537 510.283,782.286 589.356,733.033Z"/>
    <path id="k3" d="M84.409,572.701L131.644,510.83C124.09,349.85 269.867,178.59 472.706,211.987C465.295,195.435 452.281,175.694 434.935,151.07C179.934,149.251 31.62,383.244 84.409,572.701Z"/>
</svg>
