<?xml version="1.0" encoding="UTF-8" standalone="no"?>
<!DOCTYPE svg PUBLIC "-//W3C//DTD SVG 1.1//EN" "http://www.w3.org/Graphics/SVG/1.1/DTD/svg11.dtd">
<svg width="100%" height="100%" viewBox="0 0 1100 200" version="1.1" xmlns="http://www.w3.org/2000/svg" xmlns:xlink="http://www.w3.org/1999/xlink" xml:space="preserve" xmlns:serif="http://www.serif.com/" style="fill-rule:evenodd;clip-rule:evenodd;stroke-linejoin:round;stroke-miterlimit:2;">
    <g id="text" transform="matrix(1,0,0,1,43.3,219.6)">
        <g id="v" transform="matrix(1,0,0,1,0,-41)">
            <path d="M951.4,0L904.8,-105L919.6,-105L962.4,-7.6L955.4,-7.6L998.8,-105L1012.8,-105L966,0L951.4,0Z" style="fill:rgb(216,27,96);fill-rule:nonzero;"/>
        </g>
        <g id="e" transform="matrix(1,0,0,1,0,-41)">
            <path d="M850.2,1C839.267,1 829.667,-1.3 821.4,-5.9C813.133,-10.5 806.667,-16.833 802,-24.9C797.333,-32.967 795,-42.2 795,-52.6C795,-63 797.233,-72.2 801.7,-80.2C806.167,-88.2 812.3,-94.5 820.1,-99.1C827.9,-103.7 836.667,-106 846.4,-106C856.267,-106 865.033,-103.767 872.7,-99.3C880.367,-94.833 886.4,-88.567 890.8,-80.5C895.2,-72.433 897.4,-63.133 897.4,-52.6C897.4,-51.933 897.367,-51.233 897.3,-50.5C897.233,-49.767 897.2,-49 897.2,-48.2L805.8,-48.2L805.8,-58.8L889.6,-58.8L884,-54.6C884,-62.2 882.367,-68.967 879.1,-74.9C875.833,-80.833 871.4,-85.467 865.8,-88.8C860.2,-92.133 853.733,-93.8 846.4,-93.8C839.2,-93.8 832.733,-92.133 827,-88.8C821.267,-85.467 816.8,-80.8 813.6,-74.8C810.4,-68.8 808.8,-61.933 808.8,-54.2L808.8,-52C808.8,-44 810.567,-36.967 814.1,-30.9C817.633,-24.833 822.567,-20.1 828.9,-16.7C835.233,-13.3 842.467,-11.6 850.6,-11.6C857,-11.6 862.967,-12.733 868.5,-15C874.033,-17.267 878.8,-20.733 882.8,-25.4L890.8,-16.2C886.133,-10.6 880.3,-6.333 873.3,-3.4C866.3,-0.467 858.6,1 850.2,1Z" style="fill:rgb(216,27,96);fill-rule:nonzero;"/>
        </g>
        <g id="d" transform="matrix(1,0,0,1,0,-41)">
            <path d="M711.8,1C701.8,1 692.833,-1.267 684.9,-5.8C676.967,-10.333 670.733,-16.633 666.2,-24.7C661.667,-32.767 659.4,-42.067 659.4,-52.6C659.4,-63.267 661.667,-72.6 666.2,-80.6C670.733,-88.6 676.967,-94.833 684.9,-99.3C692.833,-103.767 701.8,-106 711.8,-106C721,-106 729.233,-103.933 736.5,-99.8C743.767,-95.667 749.567,-89.633 753.9,-81.7C758.233,-73.767 760.4,-64.067 760.4,-52.6C760.4,-41.267 758.267,-31.6 754,-23.6C749.733,-15.6 743.967,-9.5 736.7,-5.3C729.433,-1.1 721.133,1 711.8,1ZM712.8,-11.6C720.267,-11.6 726.967,-13.3 732.9,-16.7C738.833,-20.1 743.5,-24.9 746.9,-31.1C750.3,-37.3 752,-44.467 752,-52.6C752,-60.867 750.3,-68.067 746.9,-74.2C743.5,-80.333 738.833,-85.1 732.9,-88.5C726.967,-91.9 720.267,-93.6 712.8,-93.6C705.467,-93.6 698.867,-91.9 693,-88.5C687.133,-85.1 682.467,-80.333 679,-74.2C675.533,-68.067 673.8,-60.867 673.8,-52.6C673.8,-44.467 675.533,-37.3 679,-31.1C682.467,-24.9 687.133,-20.1 693,-16.7C698.867,-13.3 705.467,-11.6 712.8,-11.6ZM752.4,0L752.4,-31.6L753.8,-52.8L751.8,-74L751.8,-148.4L766,-148.4L766,0L752.4,0Z" style="fill:rgb(216,27,96);fill-rule:nonzero;"/>
        </g>
        <g id="n" transform="matrix(1,0,0,1,0,-41)">
            <path d="M510.4,0L510.4,-140L522.6,-140L619.2,-18.4L612.8,-18.4L612.8,-140L627.4,-140L627.4,0L615.2,0L518.8,-121.6L525.2,-121.6L525.2,0L510.4,0Z" style="fill:white;fill-rule:nonzero;"/>
        </g>
        <g id="i" transform="matrix(1,0,0,1,0,-41)">
            <rect x="282.2" y="-140" width="14.8" height="140" style="fill:white;"/>
        </g>
        <g id="r" transform="matrix(1,0,0,1,0,-41)">
            <path d="M137.6,0L137.6,-140L190,-140C207.733,-140 221.7,-135.767 231.9,-127.3C242.1,-118.833 247.2,-107.067 247.2,-92C247.2,-82.133 244.9,-73.633 240.3,-66.5C235.7,-59.367 229.133,-53.9 220.6,-50.1C212.067,-46.3 201.867,-44.4 190,-44.4L145.8,-44.4L152.4,-51.2L152.4,0L137.6,0ZM233.2,0L197.2,-50.8L213.2,-50.8L249.4,0L233.2,0ZM152.4,-50L145.8,-57L189.6,-57C203.6,-57 214.233,-60.067 221.5,-66.2C228.767,-72.333 232.4,-80.933 232.4,-92C232.4,-103.2 228.767,-111.867 221.5,-118C214.233,-124.133 203.6,-127.2 189.6,-127.2L145.8,-127.2L152.4,-134.2L152.4,-50Z" style="fill:white;fill-rule:nonzero;"/>
        </g>
        <g id="t" transform="matrix(1,0,0,1,0,-41)">
            <path d="M50,0L50,-127.2L0.8,-127.2L0.8,-140L114,-140L114,-127.2L64.8,-127.2L64.8,0L50,0Z" style="fill:white;fill-rule:nonzero;"/>
        </g>
    </g>
    <g id="logo" transform="matrix(1.03571,0,0,1.03571,-27.6308,-25.4804)">
        <g id="_1" serif:id="1" transform="matrix(0.203528,0,0,0.199737,374.258,29.1287)">
            <path d="M324.365,156.41C347.151,112.66 376.239,73.163 414.164,39.631C515.603,117.623 584.04,239.594 571.694,401.708C552.806,397.459 533.917,391.758 515.029,384.481C514.085,354.534 515.44,325.427 509.887,297.125C497.561,234.302 470.84,179.565 418.712,120.192L397.72,142.827L324.365,156.41Z" style="fill:rgb(216,27,96);"/>
        </g>
        <g id="_2" serif:id="2" transform="matrix(0.203528,0,0,0.199737,374.258,29.1287)">
            <path d="M499.348,457.057L555.146,474.271C523.727,594.23 415.355,704.82 280.347,740.604C258.671,727.614 238.983,711.972 220.671,694.496C353.976,671.093 459.257,587.453 499.348,457.057Z" style="fill:rgb(216,27,96);"/>
        </g>
        <g id="_3" serif:id="3" transform="matrix(0.203528,0,0,0.199737,374.258,29.1287)">
            <path d="M179.8,754.019C136.355,755.437 88.028,748.772 36.734,730.566C60.646,591.347 134.655,481.005 279.679,415.799L294.622,471.672C185.787,524.799 134.37,601.848 106.307,688.63L127.442,693.024C142.091,714.24 160.665,735.606 179.8,754.019Z" style="fill:rgb(216,27,96);"/>
        </g>
        <g id="_4" serif:id="4" transform="matrix(0.203528,0,0,0.199737,374.258,29.1287)">
            <path d="M352.654,393.615C354.276,414.258 359.283,432.817 368.194,448.973C493.488,429.267 613.406,475.123 692.723,565.383L703.534,489.707C593.194,397.525 475.89,368.612 352.654,393.615Z" style="fill:rgb(216,27,96);"/>
        </g>
        <g id="_5" serif:id="5" transform="matrix(0.203528,0,0,0.199737,374.258,29.1287)">
            <path d="M766.306,565.383C759.262,592.971 752.195,619.059 741.788,642.722L751.767,666.838C646.905,688.535 561.107,662.789 487.089,617.75L444.602,660.19C541.31,734.129 710.323,758.643 822.868,705.507C809.161,645.567 788.426,601.769 766.306,565.383Z" style="fill:rgb(216,27,96);"/>
        </g>
        <g id="_6" serif:id="6" transform="matrix(0.203528,0,0,0.199737,374.258,29.1287)">
            <path d="M389.011,610.724L430,571.204C336.217,457.73 320.104,340.523 359.016,220.669L290.921,246.548C257.902,372.781 295.317,505.384 389.011,610.724Z" style="fill:rgb(216,27,96);"/>
        </g>
        <g id="k1" transform="matrix(0.203528,0,0,0.199737,374.258,29.1287)">
            <path d="M536.133,171.372C548.2,197.001 558.126,222.019 565.727,246.373C739.773,359.509 740.011,543.437 652.89,667.503C675.565,668.001 698.24,667.778 720.915,666.504C833.318,456.278 718.985,234.888 536.133,171.372Z" style="fill:white;"/>
        </g>
        <g id="k2" transform="matrix(0.203528,0,0,0.199737,374.258,29.1287)">
            <path d="M589.356,733.033L660.873,743.012C497.6,898.341 241.861,864.436 120.495,669.542C128.391,646.478 139.143,625.161 152.188,605.245C206.31,714.019 284.896,766.436 375.166,780.696C437.458,790.537 510.283,782.286 589.356,733.033Z" style="fill:white;"/>
        </g>
        <g id="k3" transform="matrix(0.203528,0,0,0.199737,374.258,29.1287)">
            <path d="M84.409,572.701L131.644,510.83C124.09,349.85 269.867,178.59 472.706,211.987C465.295,195.435 452.281,175.694 434.935,151.07C179.934,149.251 31.62,383.244 84.409,572.701Z" style="fill:white;"/>
        </g>
    </g>
</svg>
