<?xml version="1.0" encoding="UTF-8" standalone="no"?>
<!DOCTYPE svg PUBLIC "-//W3C//DTD SVG 1.1//EN" "http://www.w3.org/Graphics/SVG/1.1/DTD/svg11.dtd">
<svg width="100%" height="100%" viewBox="0 0 64 64" version="1.1" xmlns="http://www.w3.org/2000/svg" xmlns:xlink="http://www.w3.org/1999/xlink" xml:space="preserve" xmlns:serif="http://www.serif.com/" style="fill-rule:evenodd;clip-rule:evenodd;stroke-linejoin:round;stroke-miterlimit:2;">
    <g id="Layer2" transform="matrix(0.0724537,0,0,0.0686405,-7.29047,-8.94966)">
        <path d="M276.613,188.062L314.127,181.377L463.688,671.123L385.096,683.235L373.077,642.118L412.277,636.078L276.613,188.062Z" style="fill:rgb(43,41,42);"/>
        <path d="M314.127,181.599L392.591,170.488L517.228,579.056L556,573.848L481.711,328.303L560.586,316.412L635,562L674,556L611.662,351.175L690.457,339.69L753,544L792,539L742,375L821,363L945.347,772.477L905.726,778.363L918.512,818.802L878.444,824.045L891.076,865.101L577.592,911.511L564.797,870.85L525.804,877.349L512.709,835.4L473.668,841.952L460.612,800.581L422.245,806.397L409.297,764.952L369.735,771.076L358.458,730.312L318.936,736.164L306.161,694.721L267.284,701.3L242.34,618.612L320.573,607.692L333.158,648.163L373.024,641.938L385.123,683.235L463.455,671.01L314.127,181.599Z" style="fill:rgb(192,0,118);"/>
        <path d="M945.347,772.477L983.946,766.355L952.934,796.967L945.347,772.477Z" style="fill:rgb(35,35,35);"/>
        <path d="M957.37,812.68L918.545,818.802L925.489,843.591L957.37,812.68Z" style="fill:rgb(35,35,35);"/>
        <path d="M930.041,859.589L891.045,865.074L898.591,890.5L930.041,859.589Z" style="fill:rgb(35,35,35);"/>
        <path d="M903.348,906.594L838.204,970.925L523.254,1017.34L589.731,953.521L903.348,906.594Z" style="fill:rgb(35,35,35);"/>
        <path d="M577.456,911.476L589.731,953.521L523.266,1017.24L511.121,977.312L577.456,911.476Z" style="fill:rgb(18,18,18);"/>
        <path d="M537.418,916.434L525.595,877.489L459.213,941.875L471.525,982.303L537.418,916.434Z" style="fill:rgb(18,18,18);"/>
        <path d="M486.332,881.316L525.595,877.489L459.136,941.936L419.589,947.04L486.332,881.316Z" style="fill:rgb(35,35,35);"/>
        <path d="M473.688,841.803L486.332,881.316L419.56,947.184L407.415,906.841L473.688,841.803Z" style="fill:rgb(18,18,18);"/>
        <path d="M434.757,845.38L473.688,841.803L407.472,906.77L368.874,912.094L434.757,845.38Z" style="fill:rgb(35,35,35);"/>
        <path d="M422.23,806.307L434.757,845.38L368.874,912.094L355.714,872.23L422.23,806.307Z" style="fill:rgb(18,18,18);"/>
        <path d="M382.196,811.505L422.279,806.355L355.722,872.023L316.767,876.807L382.196,811.505Z" style="fill:rgb(35,35,35);"/>
        <path d="M369.665,771.093L382.293,811.553L316.766,876.773L304.155,836.479L369.665,771.093Z" style="fill:rgb(18,18,18);"/>
        <path d="M330.775,776.086L369.665,770.995L304.155,836.479L264.393,841.803L330.775,776.086Z" style="fill:rgb(35,35,35);"/>
        <path d="M264.393,841.803L252.913,801.374L318.929,736.131L330.763,776.164L264.393,841.803Z" style="fill:rgb(18,18,18);"/>
        <path d="M212.964,806.697L252.913,801.374L318.936,736.164L279.532,742.645L212.964,806.697Z" style="fill:rgb(35,35,35);"/>
        <path d="M200.673,765.771L267.221,701.552L279.546,742.432L212.941,806.688L200.673,765.771Z" style="fill:rgb(18,18,18);"/>
        <path d="M227.818,706.616L267.221,701.552L201.005,766.27L161.742,770.429L227.818,706.616Z" style="fill:rgb(35,35,35);"/>
        <path d="M203.168,625.187L136.786,690.072L161.908,772.093L227.625,706.543L203.168,625.187Z" style="fill:rgb(18,18,18);"/>
        <path d="M537.408,916.503L577.289,911.393L511.093,977.224L471.557,982.289L537.408,916.503Z" style="fill:rgb(35,35,35);"/>
        <path d="M302.689,140.485L314.201,181.451L392.591,170.488L381.813,130.385L302.689,140.485Z" style="fill:rgb(43,41,42);"/>
        <path d="M392.616,170.425L517.267,578.958L556.064,573.848L481.639,328.323L560.513,316.339L548.753,276.609L469.954,287.576L432.142,164.797L392.616,170.425Z" style="fill:rgb(43,41,42);"/>
        <path d="M560.42,316.432L635,562L674,556L611.662,351.346L690.51,340L677.866,299.247L560.42,316.432Z" style="fill:rgb(43,41,42);"/>
        <path d="M690.51,339.973L753,544L792,539L742,375L821,363C818.315,357.494 811.765,337.141 808,323L690.51,339.973Z" style="fill:rgb(43,41,42);"/>
        <path d="M821,363L945.347,772.477L983.946,766.355L859.48,358.048L821,363Z" style="fill:rgb(43,41,42);"/>
        <path d="M905.808,778.463L945.374,772.477L957.431,812.744L918.588,818.802L905.808,778.463Z" style="fill:rgb(43,41,42);"/>
        <path d="M878.441,824.02L891.05,865.101L930.038,859.591L918.476,818.802L878.441,824.02Z" style="fill:rgb(43,41,42);"/>
        <path d="M903.348,906.594L891.05,865.101L577.453,911.567L589.916,953.72L903.348,906.594Z" style="fill:rgb(43,41,42);"/>
        <path d="M525.862,877.527L537.475,916.487L577.397,911.511L564.797,870.85L525.862,877.527Z" style="fill:rgb(43,41,42);"/>
        <path d="M473.579,841.952L486.332,881.316L525.862,877.574L512.734,835.448L473.579,841.952Z" style="fill:rgb(43,41,42);"/>
        <path d="M422.253,806.511L434.828,845.441L473.657,841.952L460.612,800.581L422.253,806.511Z" style="fill:rgb(43,41,42);"/>
        <path d="M369.711,771.173L382.219,811.548L422.284,806.348L409.255,764.984L369.711,771.173Z" style="fill:rgb(43,41,42);"/>
        <path d="M318.945,736.163L330.77,776.103L369.628,770.93L358.458,730.312L318.945,736.163Z" style="fill:rgb(43,41,42);"/>
        <path d="M267.337,701.473L279.456,742.497L318.95,736.131L306.237,694.868L267.337,701.473Z" style="fill:rgb(43,41,42);"/>
        <path d="M227.871,706.347L267.251,701.473L242.44,618.633L203.108,625.198L227.871,706.347Z" style="fill:rgb(43,41,42);"/>
        <path d="M231.118,578.104L242.354,618.806L320.653,607.785L309.107,567.434L231.118,578.104Z" style="fill:rgb(43,41,42);"/>
        <path d="M359.394,602.225L373.13,641.964L333.192,648.303L320.48,607.646L359.394,602.225Z" style="fill:rgb(43,41,42);"/>
        <path d="M163.405,643.987L168.23,658.129L203.168,625.175L242.598,618.532L231.118,578.104L163.405,643.987Z" style="fill:rgb(18,18,18);"/>
        <path d="M235.59,206.218L302.689,140.485L314.287,181.339L276.716,187.94L412.117,636.232L372.947,642.07L359.475,602.243L320.53,607.689L309.273,567.481L304.964,567.803L209.387,253.478L240.998,221.701L235.59,206.218Z" style="fill:rgb(18,18,18);"/>
        <path d="M173.131,298.337L205.074,267.059L199.351,252.019L238.349,214.22L241.01,221.806L209.067,252.951L304.964,567.803L256.283,574.627L173.131,298.337Z" style="fill:rgb(145,145,145);"/>
        <path d="M165.811,651.11L169.005,659.629L136.796,689.575L161.818,772.029L201.081,767.37L212.941,806.688L252.906,801.394L264.353,841.803L304.132,836.515L316.743,876.776L355.607,872.118L368.883,912.112L407.39,906.918L419.56,947.184L459.249,941.935L471.468,982.255L511.286,977.262L523.242,1017.53L837.484,970.809L864.769,944.722L866.899,951.776L800.616,1017.13L487.155,1062.78L474.644,1021.52L435.913,1027.77L423.402,987.18L384.937,993.036L371.494,951.776L332.332,958.364L319.954,916.971L280.424,921.629L267.78,881.967L229.581,887.69L216.005,846.03L177.673,852.286L164.908,811.691L125.911,817.148L100.622,735.693L132.699,704.415L127.375,688.31L165.811,651.11Z" style="fill:rgb(145,145,145);"/>
    </g>
</svg>
