<?xml version="1.0" encoding="UTF-8" standalone="no"?>
<!DOCTYPE svg PUBLIC "-//W3C//DTD SVG 1.1//EN" "http://www.w3.org/Graphics/SVG/1.1/DTD/svg11.dtd">
<svg width="100%" height="100%" viewBox="0 0 804 500" version="1.1" xmlns="http://www.w3.org/2000/svg" xmlns:xlink="http://www.w3.org/1999/xlink" xml:space="preserve" xmlns:serif="http://www.serif.com/" style="fill-rule:evenodd;clip-rule:evenodd;stroke-linejoin:round;stroke-miterlimit:2;">
    <g transform="matrix(1,0,0,1.3815,1.5,11.6073)">
        <rect x="13.5" y="13.5" width="773" height="325.547" style="fill:rgb(192,0,118);"/>
        <path d="M786.5,13.5L13.5,13.5L13.5,339.047L786.5,339.047L786.5,13.5ZM775.833,21.221L775.833,331.326C775.833,331.326 116.412,331.326 24.167,331.326C24.167,331.326 24.167,69.816 24.167,21.221C110.199,21.221 689.8,21.221 775.833,21.221L775.833,21.221Z" style="fill:rgb(33,33,33);"/>
    </g>
    <g transform="matrix(1.03512,0,0,1.05263,-21.7375,154.737)">
        <rect x="21" y="290" width="38.643" height="38" style="fill:rgb(33,33,33);"/>
        <path d="M59.643,290L21,290L21,328L59.643,328L59.643,290ZM49.338,300.133L49.338,317.867C49.338,317.867 31.305,317.867 31.305,317.867C31.305,317.867 31.305,300.133 31.305,300.133L49.338,300.133Z" style="fill:rgb(33,33,33);"/>
    </g>
    <g transform="matrix(1.03512,0,0,1.05263,-21.7375,-289.263)">
        <rect x="21" y="290" width="38.643" height="38" style="fill:rgb(33,33,33);"/>
        <path d="M59.643,290L21,290L21,328L59.643,328L59.643,290ZM49.338,300.133L49.338,317.867C49.338,317.867 31.305,317.867 31.305,317.867C31.305,317.867 31.305,300.133 31.305,300.133L49.338,300.133Z" style="fill:rgb(33,33,33);"/>
    </g>
    <g transform="matrix(1.03512,0,0,1.05263,741.992,-289.33)">
        <rect x="21" y="290" width="38.643" height="38" style="fill:rgb(33,33,33);"/>
        <path d="M59.643,290L21,290L21,328L59.643,328L59.643,290ZM49.338,300.133L49.338,317.867C49.338,317.867 31.305,317.867 31.305,317.867C31.305,317.867 31.305,300.133 31.305,300.133L49.338,300.133Z" style="fill:rgb(33,33,33);"/>
    </g>
    <g transform="matrix(1.03512,0,0,1.05263,742.208,154.737)">
        <rect x="21" y="290" width="38.643" height="38" style="fill:rgb(33,33,33);"/>
        <path d="M59.643,290L21,290L21,328L59.643,328L59.643,290ZM49.338,300.133L49.338,317.867C49.338,317.867 31.305,317.867 31.305,317.867C31.305,317.867 31.305,300.133 31.305,300.133L49.338,300.133Z" style="fill:rgb(33,33,33);"/>
    </g>
    <g transform="matrix(0.994971,0,0,1.44406,14.7389,22.3152)">
        <path d="M47.5,5.5L47.5,289.243L736.216,289.243L735.022,57L377.5,55.784L351.759,5.5L47.5,5.5Z" style="fill:rgb(33,33,33);"/>
        <path d="M47.5,5.5L47.5,289.243L736.216,289.243L735.022,57L377.5,55.784L351.759,5.5L47.5,5.5ZM58.221,12.887L344.172,12.887C344.172,12.887 369.9,63.145 369.9,63.145L724.339,64.35C724.339,64.35 725.258,242.974 725.458,281.856C645.02,281.856 138.524,281.856 58.221,281.856C58.221,237.92 58.221,12.887 58.221,12.887Z" style="fill:rgb(33,33,33);"/>
    </g>
    <g transform="matrix(1,0,0,1.42863,1.5,12.5112)">
        <path d="M47.5,-8.757L47.5,289.243L736.216,289.243L735.022,57L376,57L343.245,-8.757L47.5,-8.757Z" style="fill:rgb(33,33,33);"/>
        <path d="M47.5,-8.757L47.5,289.243L736.216,289.243L735.022,57L376,57L343.245,-8.757L47.5,-8.757ZM58.167,-1.291L335.667,-1.291C335.667,-1.291 368.423,64.466 368.423,64.466L724.394,64.466C724.573,99.38 725.331,246.748 725.511,281.776C725.511,281.776 58.167,281.776 58.167,281.776C58.167,236.319 58.167,-1.291 58.167,-1.291L58.167,-1.291Z" style="fill:rgb(33,33,33);"/>
    </g>
    <g transform="matrix(1,0,0,1.45733,1.5,7.36607)">
        <path d="M60.5,4.043L60.5,275.458L720.5,276.659L720.5,72.406L366.5,70.785L331.737,3.043L60.5,4.043Z" style="fill:white;"/>
    </g>
</svg>
