<?xml version="1.0" encoding="UTF-8" standalone="no"?>
<!DOCTYPE svg PUBLIC "-//W3C//DTD SVG 1.1//EN" "http://www.w3.org/Graphics/SVG/1.1/DTD/svg11.dtd">
<svg width="100%" height="100%" viewBox="0 0 804 500" version="1.1" xmlns="http://www.w3.org/2000/svg" xmlns:xlink="http://www.w3.org/1999/xlink" xml:space="preserve" xmlns:serif="http://www.serif.com/" style="fill-rule:evenodd;clip-rule:evenodd;stroke-linejoin:round;stroke-miterlimit:2;">
    <g transform="matrix(1,0,0,1.3815,1.5,11.6073)">
        <rect x="13.5" y="13.5" width="773" height="325.547" style="fill:rgb(169,169,169);stroke:rgb(33,33,33);stroke-width:0.83px;"/>
        <path d="M786.5,13.5L13.5,13.5L13.5,339.047L786.5,339.047L786.5,13.5ZM775.833,21.221L775.833,331.326L24.167,331.326L24.167,21.221L775.833,21.221Z" style="fill:white;stroke:rgb(33,33,33);stroke-width:0.83px;"/>
    </g>
    <g transform="matrix(1.03512,0,0,1.05263,-21.7375,154.737)">
        <rect x="21" y="290" width="38.643" height="38" style="fill:white;stroke:rgb(33,33,33);stroke-width:0.96px;"/>
    </g>
    <g transform="matrix(1.03512,0,0,1.05263,-21.7375,-289.263)">
        <rect x="21" y="290" width="38.643" height="38" style="fill:white;stroke:rgb(33,33,33);stroke-width:0.96px;"/>
    </g>
    <g transform="matrix(1.03512,0,0,1.05263,741.992,-289.33)">
        <rect x="21" y="290" width="38.643" height="38" style="fill:white;stroke:rgb(33,33,33);stroke-width:0.96px;"/>
    </g>
    <g transform="matrix(1.03512,0,0,1.05263,742.208,154.737)">
        <rect x="21" y="290" width="38.643" height="38" style="fill:white;stroke:rgb(33,33,33);stroke-width:0.96px;"/>
    </g>
    <g transform="matrix(0.994971,0,0,1.44406,14.7389,22.3152)">
        <path d="M47.5,5.5L47.5,289.243L736.216,289.243L735.022,57L377.5,55.784L351.759,5.5L47.5,5.5Z" style="fill:rgb(33,33,33);"/>
    </g>
    <g transform="matrix(1,0,0,1.42863,1.5,12.5112)">
        <path d="M47.5,-8.757L47.5,289.243L736.216,289.243L735.022,57L376,57L343.245,-8.757L47.5,-8.757Z" style="fill:rgb(33,33,33);"/>
        <path d="M47.5,-8.757L47.5,289.243L736.216,289.243L735.022,57L376,57L343.245,-8.757L47.5,-8.757ZM58.167,-1.291L335.667,-1.291L368.423,64.466L724.394,64.466C724.573,99.38 725.331,246.748 725.511,281.776L58.167,281.776L58.167,-1.291Z" style="fill:white;stroke:rgb(33,33,33);stroke-width:0.81px;"/>
    </g>
    <g transform="matrix(1,0,0,1.45733,1.5,7.36607)">
        <path d="M60.5,4.043L60.5,275.458L720.5,276.659L720.5,72.406L366.5,70.785L331.737,3.043L60.5,4.043Z" style="fill:rgb(33,33,33);"/>
    </g>
</svg>
