<?xml version="1.0" encoding="UTF-8" standalone="no"?>
<!DOCTYPE svg PUBLIC "-//W3C//DTD SVG 1.1//EN" "http://www.w3.org/Graphics/SVG/1.1/DTD/svg11.dtd">
<svg width="100%" height="100%" viewBox="0 0 654 795" version="1.1" xmlns="http://www.w3.org/2000/svg" xmlns:xlink="http://www.w3.org/1999/xlink" xml:space="preserve" xmlns:serif="http://www.serif.com/" style="fill-rule:evenodd;clip-rule:evenodd;stroke-linejoin:round;stroke-miterlimit:2;">
    <g transform="matrix(1,0,0,1,-273.192,-202.982)">
        <path d="M897.032,236.676C896.369,236.391 896.192,236.252 896.011,236.246C862.631,234.999 829.25,233.771 795.871,232.52C767.461,231.454 739.052,230.354 710.642,229.282C675.967,227.974 641.293,226.684 606.619,225.375C578.208,224.302 549.799,223.212 521.388,222.132C484.661,220.736 447.932,219.377 411.207,217.927C401.166,217.531 391.645,217.513 382.121,222.725C359.499,235.107 336.839,247.467 313.72,258.933C309.169,261.191 304.697,263.609 300.188,265.954C300.268,266.296 300.347,266.638 300.426,266.98C318.792,266.98 337.159,266.863 355.524,267.009C380.609,267.208 405.684,267.97 430.75,268.941C462.939,270.188 495.125,271.525 527.313,272.826C562.526,274.249 597.735,275.753 632.952,277.08C674.888,278.66 716.839,279.565 758.808,279.542C788.663,279.525 818.501,278.835 848.328,277.637C850.932,277.532 853.174,278.179 854.563,280.298C855.742,282.096 856.376,281.424 857.374,280.313C861.133,276.13 864.931,271.982 868.714,267.821C878.087,257.513 887.46,247.204 897.032,236.676ZM910.467,242.358C895.552,258.748 881.297,274.434 867.013,290.091C863.517,293.924 860.065,297.819 856.287,301.357C855.147,302.423 854.552,303.242 854.446,304.714C853.796,313.771 853.076,322.823 852.396,331.878C850.734,353.978 849.03,376.075 847.44,398.18C845.749,421.687 844.119,445.198 842.554,468.713C840.76,495.676 838.968,522.639 837.352,549.612C834.959,589.535 832.723,629.467 830.42,669.395C827.706,716.45 825.388,763.526 823.341,810.615C821.528,852.3 819.831,893.99 818.161,935.681C817.924,941.624 818.129,947.586 818.129,953.435C818.489,952.792 818.965,951.979 819.409,951.15C834.2,923.554 848.981,895.951 863.783,868.36C865.362,865.418 866.646,862.498 867.216,859.076C870.165,841.389 873.604,823.783 876.542,806.095C882.868,768.025 888.385,729.839 893.074,691.528C896.989,659.539 900.36,627.495 903.152,595.392C906.582,555.974 909.102,516.493 910.754,476.96C912.264,440.866 913.088,404.755 913.13,368.628C913.164,339.095 912.809,309.566 911.825,280.048C911.416,267.764 910.941,255.482 910.467,242.358ZM565.017,288.111C533.479,286.78 501.94,285.446 470.402,284.118C441.775,282.912 413.143,281.889 384.497,281.246C373.144,280.99 361.788,280.846 350.436,280.563C330.307,280.063 310.176,280.397 290.046,280.251C288.458,280.24 287.882,280.647 288.206,282.261C289.578,289.107 289.168,296.07 289.254,302.969C289.658,335.306 290.313,367.635 291.268,399.958C292.012,425.145 292.536,450.338 293.486,475.517C294.753,509.112 296.248,542.701 297.815,576.284C299.051,602.744 300.384,629.202 301.964,655.644C303.873,687.587 305.961,719.521 308.204,751.443C310.508,784.233 312.928,817.016 315.602,849.777C318.179,881.356 321.183,912.9 323.875,944.471C324.091,947.012 325.052,947.657 327.354,947.829C338.458,948.659 349.549,949.676 360.651,950.54C389.864,952.814 419.076,955.095 448.295,957.278C477.083,959.43 505.874,961.568 534.676,963.523C566.284,965.669 597.901,967.689 629.524,969.598C666.434,971.825 703.352,973.899 740.27,975.987C759.694,977.085 779.125,978.112 798.557,979.078C803.637,979.331 802.847,979.646 802.96,975.3C803.105,969.68 803.372,964.063 803.587,958.444C804.788,927.113 805.864,895.777 807.222,864.453C809.056,822.116 811.001,779.784 813.093,737.46C814.892,701.074 816.897,664.698 818.937,628.324C820.575,599.071 822.345,569.824 824.161,540.581C825.495,519.109 826.98,497.646 828.431,476.181C829.976,453.312 831.521,430.442 833.136,407.577C834.704,385.359 836.335,363.145 837.987,340.933C839.134,325.514 840.351,310.101 841.568,294.688C841.719,292.78 841.797,291.459 839.067,291.601C819.409,292.617 799.727,292.888 780.049,293.131C760.03,293.378 740.009,293.41 719.99,292.942C699.88,292.472 679.767,292.124 659.658,291.625C628.097,290.843 596.557,289.475 565.017,288.111ZM273.192,276.385L273.192,275.085C274.396,273.72 273.574,272.043 273.891,270.541C273.845,268.987 273.799,267.433 273.753,265.878C274.303,263.761 276.034,262.898 277.782,261.999C298.946,251.096 319.963,239.896 341.303,229.348C359.26,220.471 376.221,209.532 395.313,202.982L395.963,202.982C398.493,204.387 401.192,203.349 403.808,203.529C404.882,203.536 405.956,203.542 407.031,203.549C410.261,203.81 413.487,204.171 416.722,204.313C436.052,205.161 455.382,206.015 474.717,206.757C505.721,207.948 536.73,209.027 567.735,210.202C605.433,211.63 643.127,213.133 680.824,214.557C711.828,215.729 742.836,216.806 773.84,217.974C800.196,218.967 826.548,220.053 852.904,221.054C872.351,221.792 891.8,222.471 911.248,223.14C913.997,223.234 916.323,223.996 917.989,226.327C918.346,226.827 918.859,227.337 919.414,227.553C922.603,228.797 923.604,231.308 923.762,234.474C925.171,262.876 926.109,291.299 926.496,319.729C926.949,352.945 926.958,386.164 926.185,419.383C925.5,448.79 924.45,478.174 922.908,507.547C920.572,552.032 917.05,596.418 912.522,640.733C909.138,673.865 905.144,706.922 900.52,739.897C895.522,775.533 889.892,811.071 883.358,846.463C883.189,847.376 882.756,848.35 883.657,849.2C887.103,852.448 886.144,855.832 884.188,859.47C865.183,894.827 846.24,930.217 827.277,965.597C822.271,974.938 817.373,984.342 812.188,993.584C810.043,997.405 805.651,998.202 802.56,995.139C800.263,992.862 797.835,992.649 795.079,992.544C792.271,992.436 789.465,992.298 786.659,992.146C751.473,990.246 716.284,988.39 681.102,986.419C657.252,985.083 633.408,983.636 609.568,982.144C584.54,980.577 559.517,978.94 534.497,977.253C515.081,975.944 495.671,974.564 476.266,973.121C449.098,971.101 421.933,969.032 394.773,966.908C369.663,964.944 344.558,962.916 319.457,960.837C313.261,960.324 311.478,958.258 310.929,952.017C309.593,936.827 308.146,921.648 306.846,906.457C304.073,874.029 301.188,841.609 298.681,809.161C296.208,777.151 294.138,745.11 291.904,713.082C289.362,676.636 287.257,640.163 285.483,603.672C283.777,568.586 282.138,533.496 280.701,498.397C279.693,473.77 279.134,449.124 278.263,424.49C277.125,392.287 276.549,360.071 275.906,327.856C275.649,314.986 275.568,302.111 275.19,289.245C275.063,284.917 274.928,280.503 273.192,276.385Z" style="fill-rule:nonzero;"/>
        <path d="M403.808,203.529C401.192,203.349 398.493,204.387 395.963,202.982L403.758,202.982C403.759,203.166 403.776,203.349 403.808,203.529Z" style="fill:rgb(127,127,127);fill-rule:nonzero;"/>
        <path d="M273.192,265.991C273.366,265.885 273.552,265.847 273.753,265.878C273.799,267.433 273.845,268.987 273.89,270.541C273.658,270.54 273.425,270.539 273.192,270.539L273.192,265.991Z" style="fill:rgb(81,81,81);fill-rule:nonzero;"/>
        <path d="M273.192,270.539C273.425,270.539 273.658,270.54 273.89,270.541C273.574,272.043 274.396,273.72 273.192,275.085L273.192,270.539Z" style="fill:rgb(79,79,79);fill-rule:nonzero;"/>
        <path d="M403.808,203.529C403.776,203.349 403.759,203.166 403.758,202.982L407.006,202.982C406.977,203.173 406.985,203.362 407.031,203.549C405.956,203.542 404.882,203.536 403.808,203.529Z" style="fill:rgb(196,196,196);fill-rule:nonzero;"/>
        <path d="M619.65,936.25C615.611,936.216 612.981,938.823 612.926,942.918C612.872,946.877 615.661,949.849 619.47,949.888C623.331,949.928 626.156,947.084 626.203,943.108C626.251,939.093 623.566,936.282 619.65,936.25ZM552.462,946.643C556.346,946.586 559.06,943.708 559.004,939.703C558.949,935.68 556.214,932.966 552.253,933.003C548.375,933.039 545.626,935.94 545.708,939.91C545.793,943.957 548.544,946.699 552.462,946.643ZM503.967,928.895C499.966,928.889 496.652,931.929 496.662,935.598C496.671,939.595 499.859,942.731 503.922,942.741C507.845,942.751 511.223,939.637 511.228,936.004C511.234,932.005 508.063,928.901 503.967,928.895ZM618.799,811.286C618.377,817.469 621.671,829.366 628.117,838.117C640.837,855.383 658.347,863.53 679.497,863.516C700.261,863.501 716.529,854.512 726.854,836.376C739.054,814.943 738.152,792.963 727.313,771.28C723.049,762.751 717.642,755.035 708.768,750.253C683.594,736.687 657.852,740.276 638.435,760.78C626.151,773.751 619.921,789.466 618.799,811.286ZM449.167,830.147L449.336,830.149C449.336,824.96 449.375,819.77 449.313,814.58C449.293,812.948 449.625,812.188 451.511,812.527C453.846,812.946 456.238,813.031 458.6,813.311C467.291,814.338 475.964,815.539 484.672,816.382C493.721,817.258 499.066,813.335 501.295,804.55C502.851,798.422 503.089,792.147 503.015,785.872C502.9,776.129 498.629,770.865 489.088,768.746C480.039,766.737 470.909,766.395 461.701,767.64C457.014,768.273 456.148,767.53 456.312,762.921C456.476,758.282 456.912,753.646 457.41,749.027C458.163,742.041 459.226,735.087 458.976,728.023C458.591,717.18 454.527,712.567 443.874,710.829C438.267,709.914 432.68,710.325 427.055,710.613C418.21,711.066 413.574,716.117 411.575,724.177C409.855,731.108 408.838,738.162 408.271,745.286C407.748,751.843 407.642,758.473 404.929,764.67C404.084,766.6 403.03,767.282 400.759,767.086C390.852,766.23 380.923,765.626 370.999,764.981C366.909,764.716 363.798,767.021 363.46,770.853C362.92,776.987 362.058,783.101 362.07,789.282C362.095,802.091 366.376,807.085 379.058,809C379.272,809.032 379.488,809.046 379.703,809.074C386.129,809.917 392.566,810.689 398.978,811.629C402.806,812.19 403.155,812.88 402.095,816.502C400.759,821.064 399.411,825.616 398.817,830.361C397.905,837.646 396.401,844.89 397.884,852.28C399.173,858.702 402.27,861.962 408.705,863.101C416.3,864.444 423.99,864.819 431.66,864.133C443.413,863.08 448.473,857.716 449.121,845.715C449.399,840.54 449.167,835.338 449.167,830.147ZM565.646,337.553L565.646,336.254C560.242,336.254 554.837,336.312 549.435,336.245C516.119,335.831 482.804,335.373 449.489,334.96C425.256,334.66 401.022,334.41 376.788,334.133C371.55,334.073 369.043,336.609 369.297,341.932C370.042,357.485 370.836,373.035 371.617,388.585C373.131,418.709 374.649,448.832 376.165,478.955C377.898,513.396 379.623,547.837 381.368,582.277C382.718,608.943 384.094,635.608 385.46,662.274C385.746,667.842 387.682,669.937 393.456,670.306C417.407,671.839 441.365,673.258 465.318,674.76C494.977,676.619 524.631,678.542 554.29,680.395C580.189,682.012 606.094,683.545 631.993,685.159C661.458,686.995 690.919,688.893 720.384,690.731C725.47,691.049 728.06,688.855 728.636,683.807C729.201,678.865 729.648,673.91 730.142,668.961C732.211,648.196 734.282,627.432 736.348,606.666C738.392,586.114 740.422,565.56 742.474,545.008C744.75,522.199 747.056,499.393 749.325,476.583C751.382,455.924 753.394,435.26 755.449,414.601C757.697,392.006 759.992,369.416 762.22,346.819C762.659,342.364 759.988,339.386 755.484,339.1C753.327,338.963 751.164,338.888 749.003,338.859C715.473,338.417 681.943,337.85 648.411,337.596C620.824,337.387 593.235,337.553 565.646,337.553ZM565.017,288.111C596.557,289.475 628.097,290.843 659.658,291.625C679.767,292.124 699.88,292.472 719.99,292.942C740.009,293.41 760.03,293.378 780.049,293.131C799.727,292.888 819.409,292.617 839.067,291.601C841.797,291.459 841.719,292.78 841.568,294.688C840.351,310.101 839.134,325.514 837.987,340.933C836.335,363.145 834.704,385.359 833.136,407.577C831.521,430.442 829.976,453.312 828.431,476.181C826.98,497.646 825.495,519.109 824.161,540.581C822.345,569.824 820.575,599.071 818.937,628.324C816.897,664.698 814.892,701.074 813.093,737.46C811.001,779.784 809.056,822.116 807.222,864.453C805.864,895.777 804.788,927.113 803.587,958.444C803.372,964.063 803.105,969.68 802.96,975.3C802.847,979.646 803.637,979.331 798.557,979.078C779.125,978.112 759.694,977.085 740.27,975.987C703.352,973.899 666.434,971.825 629.524,969.598C597.901,967.689 566.284,965.669 534.676,963.523C505.874,961.568 477.083,959.43 448.295,957.278C419.076,955.095 389.864,952.814 360.651,950.54C349.549,949.676 338.458,948.659 327.354,947.829C325.052,947.657 324.091,947.012 323.875,944.471C321.183,912.9 318.179,881.356 315.602,849.777C312.928,817.016 310.508,784.233 308.204,751.443C305.961,719.521 303.873,687.587 301.964,655.644C300.384,629.202 299.051,602.744 297.815,576.284C296.248,542.701 294.753,509.112 293.486,475.517C292.536,450.338 292.012,425.145 291.268,399.958C290.313,367.635 289.658,335.306 289.254,302.969C289.168,296.07 289.578,289.107 288.206,282.261C287.882,280.647 288.458,280.24 290.046,280.251C310.176,280.397 330.307,280.063 350.436,280.563C361.788,280.846 373.144,280.99 384.497,281.246C413.143,281.889 441.775,282.912 470.402,284.118C501.94,285.446 533.479,286.78 565.017,288.111Z" style="fill:rgb(255,233,32);fill-rule:nonzero;"/>
        <path d="M910.467,242.358C910.941,255.482 911.416,267.764 911.825,280.048C912.809,309.566 913.164,339.095 913.13,368.628C913.088,404.755 912.264,440.866 910.754,476.96C909.102,516.493 906.582,555.974 903.152,595.392C900.36,627.495 896.989,659.539 893.074,691.528C888.385,729.839 882.868,768.025 876.542,806.095C873.604,823.783 870.165,841.389 867.216,859.076C866.646,862.498 865.362,865.418 863.783,868.36C848.981,895.951 834.2,923.554 819.409,951.15C818.965,951.979 818.489,952.792 818.129,953.435C818.129,947.586 817.924,941.624 818.161,935.681C819.831,893.99 821.528,852.3 823.341,810.615C825.388,763.526 827.706,716.45 830.42,669.395C832.723,629.467 834.959,589.535 837.352,549.612C838.968,522.639 840.76,495.676 842.554,468.713C844.119,445.198 845.749,421.687 847.44,398.18C849.03,376.075 850.734,353.978 852.396,331.878C853.076,322.823 853.796,313.771 854.446,304.714C854.552,303.242 855.147,302.423 856.287,301.357C860.065,297.819 863.517,293.924 867.013,290.091C881.297,274.434 895.552,258.748 910.467,242.358Z" style="fill:rgb(254,229,0);fill-rule:nonzero;"/>
        <path d="M897.032,236.676C887.46,247.204 878.087,257.513 868.714,267.821C864.931,271.982 861.133,276.13 857.374,280.313C856.376,281.424 855.742,282.096 854.563,280.298C853.174,278.179 850.932,277.532 848.328,277.637C818.501,278.835 788.663,279.525 758.808,279.542C716.839,279.565 674.888,278.66 632.952,277.08C597.735,275.753 562.526,274.249 527.313,272.826C495.125,271.525 462.939,270.188 430.75,268.941C405.684,267.97 380.609,267.208 355.524,267.009C337.159,266.863 318.792,266.98 300.426,266.98C300.347,266.638 300.268,266.296 300.188,265.954C304.697,263.609 309.169,261.191 313.72,258.933C336.839,247.467 359.499,235.107 382.121,222.725C391.645,217.513 401.166,217.531 411.207,217.927C447.932,219.377 484.661,220.736 521.388,222.132C549.799,223.212 578.208,224.302 606.619,225.375C641.293,226.684 675.967,227.974 710.642,229.282C739.052,230.354 767.461,231.454 795.871,232.52C829.25,233.771 862.631,234.999 896.011,236.246C896.192,236.252 896.369,236.391 897.032,236.676Z" style="fill:rgb(254,229,0);fill-rule:nonzero;"/>
        <path d="M397.229,348.591L397.229,347.919C393.333,347.919 389.431,348.042 385.542,347.868C383.581,347.78 383.242,348.324 383.354,350.22C383.989,361.015 384.449,371.82 384.99,382.62C386.709,416.96 388.428,451.299 390.166,485.638C391.854,519.005 393.579,552.37 395.26,585.736C396.419,608.736 397.545,631.739 398.629,654.743C398.703,656.31 398.984,656.993 400.77,657.095C414.482,657.873 428.187,658.785 441.896,659.635C460.354,660.78 478.815,661.892 497.274,663.046C523.93,664.712 550.583,666.414 577.239,668.078C595.688,669.23 614.14,670.319 632.588,671.479C658.91,673.134 685.229,674.841 711.552,676.491C715.839,676.761 715.758,676.67 716.179,672.251C717.729,655.995 719.319,639.744 720.938,623.495C723.222,600.577 725.564,577.665 727.845,554.747C729.889,534.194 731.857,513.635 733.904,493.083C736.187,470.164 738.542,447.253 740.823,424.334C743.095,401.523 745.234,378.699 747.649,355.903C747.973,352.86 747.01,352.471 744.486,352.455C731.72,352.372 718.954,352.182 706.188,352.015C685.743,351.746 665.299,351.457 644.854,351.192C615.429,350.81 586.003,350.444 556.577,350.066C540.242,349.856 523.906,349.622 507.571,349.421C484.095,349.134 460.62,348.813 437.143,348.612C423.839,348.497 410.534,348.591 397.229,348.591ZM565.646,337.553C593.235,337.553 620.824,337.387 648.411,337.596C681.943,337.85 715.473,338.417 749.003,338.859C751.164,338.888 753.327,338.963 755.484,339.1C759.988,339.386 762.659,342.364 762.22,346.819C759.992,369.416 757.697,392.006 755.449,414.601C753.394,435.26 751.382,455.924 749.325,476.583C747.056,499.393 744.75,522.199 742.474,545.008C740.422,565.56 738.392,586.114 736.348,606.666C734.282,627.432 732.211,648.196 730.142,668.961C729.648,673.91 729.201,678.865 728.636,683.807C728.06,688.855 725.47,691.049 720.384,690.731C690.919,688.893 661.458,686.995 631.993,685.159C606.094,683.545 580.189,682.012 554.29,680.395C524.631,678.542 494.977,676.619 465.318,674.76C441.365,673.258 417.407,671.839 393.456,670.306C387.682,669.937 385.746,667.842 385.46,662.274C384.094,635.608 382.718,608.943 381.368,582.277C379.623,547.837 377.898,513.396 376.165,478.955C374.649,448.832 373.131,418.709 371.617,388.585C370.836,373.035 370.042,357.485 369.297,341.932C369.043,336.609 371.55,334.073 376.788,334.133C401.022,334.41 425.256,334.66 449.489,334.96C482.804,335.373 516.119,335.831 549.435,336.245C554.837,336.312 560.242,336.254 565.646,336.254L565.646,337.553Z" style="fill-rule:nonzero;"/>
        <path d="M449.167,830.147C449.167,835.338 449.399,840.54 449.121,845.715C448.473,857.716 443.413,863.08 431.66,864.133C423.99,864.819 416.3,864.444 408.705,863.101C402.27,861.962 399.173,858.702 397.884,852.28C396.401,844.89 397.905,837.646 398.817,830.361C399.411,825.616 400.759,821.064 402.095,816.502C403.155,812.88 402.806,812.19 398.978,811.629C392.566,810.689 386.129,809.917 379.703,809.074C379.488,809.046 379.272,809.032 379.058,809C366.376,807.085 362.095,802.091 362.07,789.282C362.058,783.101 362.92,776.987 363.46,770.853C363.798,767.021 366.909,764.716 370.999,764.981C380.923,765.626 390.852,766.23 400.759,767.086C403.03,767.282 404.084,766.6 404.929,764.67C407.642,758.473 407.748,751.843 408.271,745.286C408.838,738.162 409.855,731.108 411.575,724.177C413.574,716.117 418.21,711.066 427.055,710.613C432.68,710.325 438.267,709.914 443.874,710.829C454.527,712.567 458.591,717.18 458.976,728.023C459.226,735.087 458.163,742.041 457.41,749.027C456.912,753.646 456.476,758.282 456.312,762.921C456.148,767.53 457.014,768.273 461.701,767.64C470.909,766.395 480.039,766.737 489.088,768.746C498.629,770.865 502.9,776.129 503.015,785.872C503.089,792.147 502.851,798.422 501.295,804.55C499.066,813.335 493.721,817.258 484.672,816.382C475.964,815.539 467.291,814.338 458.6,813.311C456.238,813.031 453.846,812.946 451.511,812.527C449.625,812.188 449.293,812.948 449.313,814.58C449.375,819.77 449.336,824.96 449.336,830.149L449.167,830.147Z" style="fill-rule:nonzero;"/>
        <path d="M677.798,850.055C697.623,850.354 713.429,839.144 719.403,820.249C723.704,806.648 722.177,793.351 716.48,780.44C713.841,774.459 710.893,768.176 705.506,764.614C692.05,755.718 677.227,752.679 662.174,760.128C644.474,768.889 635.609,784.372 633.056,803.442C630.838,820.006 636.524,833.461 650.982,842.541C659.136,847.662 668.191,849.934 677.798,850.055ZM618.799,811.286C619.921,789.466 626.151,773.751 638.435,760.78C657.852,740.276 683.594,736.687 708.768,750.253C717.642,755.035 723.049,762.751 727.313,771.28C738.152,792.963 739.054,814.943 726.854,836.376C716.529,854.512 700.261,863.501 679.497,863.516C658.347,863.53 640.837,855.383 628.117,838.117C621.671,829.366 618.377,817.469 618.799,811.286Z" style="fill-rule:nonzero;"/>
        <path d="M503.967,928.895C508.063,928.901 511.234,932.005 511.228,936.004C511.223,939.637 507.845,942.751 503.922,942.741C499.859,942.731 496.671,939.595 496.662,935.598C496.652,931.929 499.966,928.889 503.967,928.895Z" style="fill:rgb(1,1,0);fill-rule:nonzero;"/>
        <path d="M552.462,946.643C548.544,946.699 545.793,943.957 545.708,939.91C545.626,935.94 548.375,933.039 552.253,933.003C556.214,932.966 558.949,935.68 559.004,939.703C559.06,943.708 556.346,946.586 552.462,946.643Z" style="fill:rgb(1,1,0);fill-rule:nonzero;"/>
        <path d="M619.65,936.25C623.566,936.282 626.251,939.093 626.203,943.108C626.156,947.084 623.331,949.928 619.47,949.888C615.661,949.849 612.872,946.877 612.926,942.918C612.981,938.823 615.611,936.216 619.65,936.25Z" style="fill:rgb(1,1,0);fill-rule:nonzero;"/>
        <path d="M397.229,348.591C410.534,348.591 423.839,348.497 437.143,348.612C460.62,348.813 484.095,349.134 507.571,349.421C523.906,349.622 540.242,349.856 556.577,350.066C586.003,350.444 615.429,350.81 644.854,351.192C665.299,351.457 685.743,351.746 706.188,352.015C718.954,352.182 731.72,352.372 744.486,352.455C747.01,352.471 747.973,352.86 747.649,355.903C745.234,378.699 743.095,401.523 740.823,424.334C738.542,447.253 736.187,470.164 733.904,493.083C731.857,513.635 729.889,534.194 727.845,554.747C725.564,577.665 723.222,600.577 720.938,623.495C719.319,639.744 717.729,655.995 716.179,672.251C715.758,676.67 715.839,676.761 711.552,676.491C685.229,674.841 658.91,673.134 632.588,671.479C614.14,670.319 595.688,669.23 577.239,668.078C550.583,666.414 523.93,664.712 497.274,663.046C478.815,661.892 460.354,660.78 441.896,659.635C428.187,658.785 414.482,657.873 400.77,657.095C398.984,656.993 398.703,656.31 398.629,654.743C397.545,631.739 396.419,608.736 395.26,585.736C393.579,552.37 391.854,519.005 390.166,485.638C388.428,451.299 386.709,416.96 384.99,382.62C384.449,371.82 383.989,361.015 383.354,350.22C383.242,348.324 383.581,347.78 385.542,347.868C389.431,348.042 393.333,347.919 397.229,347.919L397.229,348.591Z" style="fill:rgb(172,214,66);fill-rule:nonzero;"/>
        <path d="M677.798,850.052C668.191,849.934 659.136,847.662 650.982,842.541C636.524,833.461 630.838,820.006 633.056,803.442C635.609,784.372 644.474,768.889 662.174,760.128C677.227,752.679 692.05,755.718 705.506,764.614C710.893,768.176 713.841,774.459 716.48,780.44C722.177,793.351 723.704,806.648 719.403,820.249C713.429,839.144 697.623,850.354 677.798,850.052Z" style="fill:rgb(238,88,103);fill-rule:nonzero;"/>
    </g>
    <g id="Layer1">
        <g transform="matrix(-0.0714034,-2.18988,-1.41995,0.11012,228.389,229.66)">
            <path d="M-28.152,-26.941C-43.304,-25.925 -54.245,-12.507 -53.304,3.036C-52.36,18.573 -41.433,27.833 -28.152,23.853C-14.888,19.881 -2.938,6.504 -2.026,-6.084C-1.087,-18.667 -13.021,-27.968 -28.152,-26.941" style="fill:white;fill-rule:nonzero;"/>
        </g>
        <g transform="matrix(1.42175,0,0,2.19265,237.621,348.076)">
            <path d="M0,-54.423C-13.577,-52.66 -27.568,-38.92 -31.292,-24.459C-35.025,-9.978 -24.256,1.286 -7.076,1.544C10.111,1.798 24.211,-10.733 24.319,-27.254C24.442,-43.752 13.569,-56.221 0,-54.423M-0.258,-52.272C12.262,-53.842 22.15,-42.39 21.885,-27.226C21.631,-12.043 8.779,-0.441 -6.791,-0.601C-22.356,-0.763 -32.153,-11.211 -28.845,-24.675C-25.544,-38.123 -12.784,-50.729 -0.258,-52.272" style="fill-rule:nonzero;"/>
        </g>
        <g transform="matrix(-0.0614663,-2.1906,-1.42042,0.0947949,237.139,247.187)">
            <path d="M-19.645,-19.017C-30.307,-18.237 -38.273,-8.847 -37.796,1.958C-37.313,12.761 -29.351,19.617 -19.645,17.321C-9.948,15.028 -1.464,5.655 -0.997,-3.637C-0.517,-12.926 -8.994,-19.799 -19.645,-19.017" style="fill-rule:nonzero;"/>
        </g>
        <g transform="matrix(0.828671,1.7817,1.15528,-1.278,208.115,206.138)">
            <path d="M12.843,-9.063C13.175,-8.974 6.138,9.335 21.665,22.142C21.654,22.132 16.6,20.472 12.843,14.5C9.761,9.616 8.895,2.628 10.681,-3.883C11.173,-5.653 11.862,-7.446 12.843,-9.063" style="fill-rule:nonzero;"/>
        </g>
        <g transform="matrix(-0.0743433,2.18965,1.4198,0.114654,337.237,232.961)">
            <path d="M26.798,-28.638C42.228,-27.637 54.957,-14.149 55.956,1.596C56.954,17.348 44.202,26.527 26.798,22.155C9.413,17.793 -4.282,4.352 -3.295,-8.036C-2.336,-20.428 11.382,-29.65 26.798,-28.638" style="fill:white;fill-rule:nonzero;"/>
        </g>
        <g transform="matrix(1.42175,0,0,2.19265,325.707,364.681)">
            <path d="M0,-66.26C-13.458,-65.828 -24.382,-51.443 -24.325,-34.839C-24.281,-18.22 -10.246,-3.72 7.061,-1.626C24.378,0.467 35.194,-12.76 31.279,-31.927C27.377,-51.069 13.452,-66.727 0,-66.26M0.257,-63.784C12.678,-64.121 25.387,-49.742 28.833,-32.154C32.288,-14.545 22.456,-2.291 6.777,-4.111C-8.894,-5.931 -21.699,-19.348 -21.891,-34.81C-22.096,-50.258 -12.167,-63.474 0.257,-63.784" style="fill-rule:nonzero;"/>
        </g>
        <g transform="matrix(-0.0637382,2.19045,1.42032,0.0982986,327.519,249.23)">
            <path d="M18.797,-20.024C29.823,-19.254 38.881,-9.829 39.386,1.064C39.888,11.959 30.823,18.777 18.797,16.312C6.782,13.851 -2.774,4.445 -2.273,-4.759C-1.784,-13.963 7.78,-20.799 18.797,-20.024" style="fill-rule:nonzero;"/>
        </g>
        <g transform="matrix(0.824358,-1.78645,-1.15836,-1.27135,356.219,191.565)">
            <path d="M-13.773,-8.5C-13.836,-8.17 -5.29,10.979 -24.62,20.915C-24.623,20.895 -18.644,19.9 -13.773,14.814C-9.791,10.647 -8.479,4.091 -10.888,-2.824C-11.544,-4.701 -12.471,-6.654 -13.773,-8.5" style="fill-rule:nonzero;"/>
        </g>
        <g transform="matrix(1.42175,0,0,2.19265,319.827,394.774)">
            <path d="M0,-9.616C0.047,-9.512 -4.025,0.552 -26.977,-1.629C-49.903,-3.573 -53.866,-13.289 -53.835,-13.345C-54.534,-12.922 -55.235,-12.5 -55.939,-12.078C-50.278,-0.783 -26.913,0.695 -26.982,0.746C-27.073,0.6 -3.641,3.729 2.112,-7.919C1.405,-8.488 0.701,-9.053 0,-9.616" style="fill-rule:nonzero;"/>
        </g>
        <g transform="matrix(1.42175,0,0,2.19265,248.366,374.94)">
            <path d="M0,-7.841C0.013,-7.825 -3.884,-2.686 -12.226,-2.299C-12.259,-2.337 -2.047,0 0,-7.841" style="fill-rule:nonzero;"/>
        </g>
        <g transform="matrix(1.42175,0,0,2.19265,314.742,383.362)">
            <path d="M0,-8.753C-0.012,-8.752 3.879,-2.657 12.28,-0.92C12.312,-0.921 2.024,0 0,-8.753" style="fill-rule:nonzero;"/>
        </g>
    </g>
</svg>
