<?xml version="1.0" encoding="UTF-8" standalone="no"?>
<!DOCTYPE svg PUBLIC "-//W3C//DTD SVG 1.1//EN" "http://www.w3.org/Graphics/SVG/1.1/DTD/svg11.dtd">
<svg width="100%" height="100%" viewBox="0 0 12000 12000" version="1.1" xmlns="http://www.w3.org/2000/svg" xmlns:xlink="http://www.w3.org/1999/xlink" xml:space="preserve" xmlns:serif="http://www.serif.com/" style="fill-rule:evenodd;clip-rule:evenodd;stroke-linejoin:round;stroke-miterlimit:2;">
    <g transform="matrix(1,0,0,1.56651,-9.09495e-13,0)">
        <path d="M12000,536.223C12000,240.273 11623.6,0 11160,0L840,0C376.391,0 0,240.273 0,536.223L0,7124.11C0,7420.06 376.391,7660.33 840,7660.33L11160,7660.33C11623.6,7660.33 12000,7420.06 12000,7124.11L12000,536.223Z" style="fill:rgb(35,31,32);"/>
    </g>
    <g transform="matrix(1.02468,0,0,1.64181,-131.159,-318.511)">
        <path d="M11839,668.751C11839,406.729 11498.2,194 11078.3,194L888.68,194C468.849,194 128,406.729 128,668.751L128,7028.25C128,7290.27 468.849,7503 888.68,7503L11078.3,7503C11498.2,7503 11839,7290.27 11839,7028.25L11839,668.751Z" style="fill:rgb(255,235,0);"/>
    </g>
    <g transform="matrix(1.04124,0,0,1.04237,-302.339,-385.881)">
        <path d="M11622,1223.77C11622,846.388 11315.3,540 10937.5,540L1151.59,540C773.795,540 467.075,846.388 467.075,1223.77L467.075,8423.23C467.075,8800.61 773.795,9107 1151.59,9107L10937.5,9107C11315.3,9107 11622,8800.61 11622,8423.23L11622,1223.77Z" style="fill:rgb(35,31,32);"/>
    </g>
    <g id="Layer1">
        <g transform="matrix(10.6765,0,-0.00803971,11.1465,-4868.29,-3194.06)">
            <path d="M1530.3,353.469C1527.87,348.915 1524.8,344.754 1521.17,341.12C1511.76,331.723 1498.87,325.944 1484.52,325.938L551.806,325.938C537.456,325.944 524.57,331.723 515.154,341.12C505.757,350.535 499.978,363.422 499.973,377.771L499.973,1030.75C499.978,1045.1 505.757,1057.99 515.154,1067.4C524.57,1076.8 537.456,1082.58 551.806,1082.59L1484.52,1082.59C1498.87,1082.58 1511.76,1076.8 1521.17,1067.4C1530.57,1057.99 1536.35,1045.1 1536.35,1030.75L1536.35,377.771C1536.35,368.961 1534.16,360.712 1530.3,353.469Z" style="fill:rgb(153,215,42);fill-rule:nonzero;"/>
        </g>
        <g transform="matrix(4.16667,0,0,4.16667,-1506.3,4177.29)">
            <path d="M1007.74,1485.72L1007.74,1573.8C1007.73,1602.95 984.119,1626.57 954.97,1626.57L853.745,1626.57C840.499,1626.57 827.738,1621.59 817.993,1612.62L770.177,1568.58C758.857,1558.16 753.139,1543.89 753.156,1529.76C753.139,1515.63 758.858,1501.36 770.177,1490.94L817.993,1446.9C827.738,1437.93 840.5,1432.95 853.745,1432.95L954.97,1432.95C984.119,1432.95 1007.73,1456.57 1007.74,1485.72ZM826.312,1755.23C826.305,1784.38 802.69,1808 773.541,1808L685.456,1808C656.307,1808 632.692,1784.38 632.684,1755.23L632.684,1654.01C632.684,1640.76 637.666,1628 646.64,1618.26L690.682,1570.44C701.096,1559.12 715.363,1553.4 729.499,1553.42C743.633,1553.4 757.9,1559.12 768.314,1570.44L812.355,1618.26C821.33,1628 826.312,1640.76 826.312,1654.01L826.312,1755.23ZM504.028,1626.57C474.878,1626.57 451.264,1602.95 451.256,1573.8L451.256,1485.72C451.263,1456.57 474.878,1432.95 504.028,1432.95L605.252,1432.95C618.498,1432.95 631.26,1437.93 641.003,1446.9L688.82,1490.94C700.138,1501.36 705.857,1515.63 705.84,1529.76C705.857,1543.9 700.138,1558.16 688.82,1568.58L641.003,1612.62C631.26,1621.59 618.498,1626.57 605.252,1626.57L504.028,1626.57ZM632.684,1304.29C632.692,1275.14 656.307,1251.53 685.456,1251.52L773.541,1251.52C802.69,1251.53 826.305,1275.14 826.312,1304.29L826.312,1405.51C826.312,1418.76 821.33,1431.52 812.356,1441.27L768.314,1489.08C757.899,1500.4 743.632,1506.12 729.499,1506.1C715.363,1506.12 701.096,1500.4 690.682,1489.08L646.64,1441.27C637.666,1431.52 632.684,1418.76 632.684,1405.51L632.684,1304.29ZM729.499,1240.49C649.584,1240.5 577.338,1272.85 524.955,1325.22C472.591,1377.6 440.236,1449.85 440.231,1529.76C440.236,1609.68 472.591,1681.92 524.955,1734.3C577.338,1786.67 649.584,1819.02 729.499,1819.03C809.413,1819.02 881.659,1786.67 934.041,1734.3C986.406,1681.92 1018.76,1609.67 1018.77,1529.76C1018.76,1449.85 986.406,1377.6 934.041,1325.22C881.659,1272.85 809.412,1240.5 729.499,1240.49Z" style="fill:rgb(253,183,38);fill-rule:nonzero;"/>
        </g>
        <g transform="matrix(4.16667,0,0,4.16667,-1506.3,4177.29)">
            <path d="M683.487,1529.76C683.471,1521.54 680.245,1513.45 673.677,1507.39L625.86,1463.34C620.243,1458.17 612.887,1455.3 605.252,1455.3L504.028,1455.3C495.592,1455.31 488.058,1458.69 482.518,1464.21C476.996,1469.75 473.614,1477.28 473.609,1485.72L473.609,1573.8C473.61,1575.6 473.795,1577.35 474.091,1579.05C475.184,1585.35 478.173,1590.95 482.518,1595.31C488.058,1600.83 495.592,1604.22 504.028,1604.22L605.252,1604.22C612.887,1604.22 620.243,1601.35 625.86,1596.18L644.451,1579.05L673.677,1552.14C680.245,1546.07 683.471,1537.98 683.487,1529.76Z" style="fill-rule:nonzero;"/>
        </g>
        <g transform="matrix(4.16667,0,0,4.16667,-1506.3,4177.29)">
            <path d="M707.124,1473.94C713.183,1480.51 721.275,1483.73 729.499,1483.75C737.72,1483.73 745.812,1480.51 751.873,1473.94L775.762,1448L795.916,1426.12C801.088,1420.51 803.959,1413.15 803.959,1405.51L803.959,1304.29C803.954,1295.85 800.572,1288.32 795.05,1282.78C790.003,1277.75 783.292,1274.53 775.762,1273.98C775.026,1273.93 774.292,1273.87 773.541,1273.87L685.456,1273.87C677.021,1273.88 669.487,1277.26 663.947,1282.78C658.425,1288.32 655.043,1295.85 655.037,1304.29L655.037,1405.51C655.037,1413.15 657.909,1420.51 663.081,1426.12L707.124,1473.94Z" style="fill-rule:nonzero;"/>
        </g>
        <g transform="matrix(4.16667,0,0,4.16667,-1506.3,4177.29)">
            <path d="M775.762,1611.52L751.873,1585.58C745.812,1579.01 737.72,1575.79 729.499,1575.77C721.275,1575.79 713.184,1579.01 707.124,1585.58L663.081,1633.4C657.909,1639.02 655.037,1646.37 655.037,1654.01L655.037,1755.23C655.043,1763.67 658.425,1771.2 663.947,1776.74C669.487,1782.26 677.021,1785.64 685.456,1785.65L773.541,1785.65C774.292,1785.65 775.026,1785.59 775.762,1785.54C783.292,1784.99 790.003,1781.77 795.05,1776.74C800.572,1771.2 803.954,1763.67 803.959,1755.23L803.959,1654.01C803.959,1646.37 801.088,1639.02 795.914,1633.4L775.762,1611.52Z" style="fill-rule:nonzero;"/>
        </g>
        <g transform="matrix(4.16667,0,0,4.16667,-1506.3,4177.29)">
            <path d="M976.479,1464.21C970.939,1458.69 963.405,1455.31 954.97,1455.3L853.746,1455.3C846.109,1455.3 838.753,1458.17 833.137,1463.34L785.32,1507.39C778.75,1513.45 775.525,1521.54 775.508,1529.76C775.525,1537.98 778.75,1546.07 785.32,1552.14L814.546,1579.05L833.137,1596.18C838.753,1601.35 846.11,1604.22 853.746,1604.22L954.97,1604.22C963.405,1604.22 970.939,1600.83 976.479,1595.31C980.823,1590.95 983.813,1585.35 984.906,1579.05C985.201,1577.35 985.387,1575.6 985.388,1573.8L985.388,1485.72C985.383,1477.28 982.001,1469.75 976.479,1464.21Z" style="fill-rule:nonzero;"/>
        </g>
        <g transform="matrix(4.16667,0,0,4.16667,5092.88,4178.75)">
            <path d="M1247.59,1540.59C1178.06,1540.58 1121.71,1484.23 1121.71,1414.7C1121.71,1345.17 1178.06,1288.82 1247.59,1288.81C1317.12,1288.82 1373.47,1345.17 1373.48,1414.7C1373.47,1484.23 1317.12,1540.58 1247.59,1540.59ZM1247.83,1273.52C1169.85,1273.52 1106.64,1336.73 1106.64,1414.71C1106.64,1446.61 1117.23,1476.04 1135.08,1499.68C1160.85,1533.82 1201.76,1555.9 1247.83,1555.9C1316.29,1555.9 1373.36,1507.17 1386.27,1442.5C1388.06,1433.52 1389.02,1424.22 1389.02,1414.71C1389.02,1336.73 1325.81,1273.52 1247.83,1273.52Z" style="fill:rgb(253,183,38);fill-rule:nonzero;"/>
        </g>
        <g transform="matrix(4.16667,0,0,4.16667,5092.88,4178.75)">
            <path d="M1468.04,1533.5C1537.57,1533.51 1593.92,1589.86 1593.93,1659.39C1593.92,1728.92 1537.57,1785.27 1468.04,1785.28C1398.51,1785.27 1342.16,1728.92 1342.15,1659.39C1342.16,1589.86 1398.51,1533.51 1468.04,1533.5ZM1468.28,1800.59C1546.25,1800.59 1609.47,1737.37 1609.47,1659.4C1609.47,1581.42 1546.25,1518.21 1468.28,1518.21C1390.3,1518.21 1327.09,1581.42 1327.09,1659.4C1327.09,1737.37 1390.3,1800.59 1468.28,1800.59Z" style="fill:rgb(253,183,38);fill-rule:nonzero;"/>
        </g>
        <g transform="matrix(4.16667,0,0,4.16667,5092.88,4178.75)">
            <path d="M1255.77,1311.58C1253.07,1311.37 1250.36,1311.17 1247.59,1311.17C1218.97,1311.17 1193.16,1322.74 1174.38,1341.49C1155.63,1360.26 1144.06,1386.08 1144.06,1414.7C1144.06,1443.33 1155.63,1469.14 1174.38,1487.91C1193.16,1506.67 1218.97,1518.23 1247.59,1518.24C1250.36,1518.24 1253.08,1518.04 1255.79,1517.82C1281.12,1515.83 1303.85,1504.85 1320.8,1487.91C1339.56,1469.14 1351.12,1443.33 1351.13,1414.7C1351.12,1386.08 1339.56,1360.26 1320.8,1341.49C1303.84,1324.55 1281.11,1313.56 1255.77,1311.58Z" style="fill:rgb(192,0,118);fill-rule:nonzero;"/>
        </g>
        <g transform="matrix(4.16667,0,0,4.16667,5092.88,4178.75)">
            <path d="M1541.25,1586.18C1524.29,1569.24 1501.56,1558.25 1476.22,1556.27C1473.51,1556.06 1470.8,1555.86 1468.04,1555.86C1439.41,1555.86 1413.6,1567.43 1394.83,1586.18C1376.08,1604.95 1364.51,1630.76 1364.51,1659.39C1364.51,1688.02 1376.08,1713.83 1394.83,1732.6C1413.6,1751.35 1439.41,1762.92 1468.04,1762.93C1470.81,1762.92 1473.53,1762.72 1476.24,1762.51C1501.57,1760.52 1524.3,1749.54 1541.25,1732.6C1560,1713.83 1571.57,1688.02 1571.58,1659.39C1571.57,1630.76 1560,1604.95 1541.25,1586.18Z" style="fill:rgb(192,0,118);fill-rule:nonzero;"/>
        </g>
        <g transform="matrix(4.16667,0,0,4.16667,5092.88,4178.75)">
            <path d="M1351.13,1414.7C1351.12,1386.08 1339.56,1360.26 1320.8,1341.49C1303.84,1324.55 1281.11,1313.56 1255.77,1311.58C1293.96,1330.19 1320.25,1369.36 1320.25,1414.69C1320.25,1460.04 1293.97,1499.21 1255.79,1517.82C1281.12,1515.83 1303.85,1504.85 1320.8,1487.91C1339.56,1469.14 1351.12,1443.33 1351.13,1414.7Z" style="fill:rgb(139,0,80);fill-rule:nonzero;"/>
        </g>
        <g transform="matrix(4.16667,0,0,4.16667,5092.88,4178.75)">
            <path d="M1540.69,1659.37C1540.69,1704.72 1514.42,1743.89 1476.24,1762.51C1501.57,1760.52 1524.3,1749.54 1541.25,1732.6C1560,1713.83 1571.57,1688.02 1571.58,1659.39C1571.57,1630.76 1560,1604.95 1541.25,1586.18C1524.29,1569.24 1501.56,1558.25 1476.22,1556.27C1514.41,1574.88 1540.69,1614.05 1540.69,1659.37Z" style="fill:rgb(139,0,80);fill-rule:nonzero;"/>
        </g>
        <path d="M10325.2,11587.4C10325.2,11560.7 10303.6,11539 10276.9,11539L2510.35,11539C2483.66,11539 2462,11560.7 2462,11587.4L2462,11632.9C2462,11659.5 2483.66,11681.2 2510.35,11681.2L10276.9,11681.2C10303.6,11681.2 10325.2,11659.5 10325.2,11632.9L10325.2,11587.4Z" style="fill:rgb(35,31,32);"/>
        <g transform="matrix(4.16667,0,0,4.16667,-1506.3,4176.83)">
            <path d="M795.916,1426.12C801.088,1420.51 803.959,1413.15 803.959,1405.51L803.959,1304.29C803.954,1295.85 800.572,1288.32 795.05,1282.78C790.004,1277.75 783.292,1274.53 775.762,1273.98L775.762,1448L795.916,1426.12Z" style="fill:rgb(35,31,32);fill-rule:nonzero;"/>
        </g>
        <g transform="matrix(4.16667,0,0,4.16667,-1506.3,4177.75)">
            <path d="M795.05,1776.74C800.572,1771.2 803.954,1763.67 803.959,1755.23L803.959,1654.01C803.959,1646.37 801.088,1639.02 795.914,1633.4L775.762,1611.52L775.762,1785.54C783.292,1784.99 790.004,1781.77 795.05,1776.74Z" style="fill:rgb(35,31,32);fill-rule:nonzero;"/>
        </g>
        <g transform="matrix(4.16667,0,0,4.16667,-1508.3,4177.29)">
            <path d="M644.451,1579.05L474.091,1579.05C475.184,1585.35 478.173,1590.95 482.518,1595.31C488.058,1600.83 495.592,1604.22 504.028,1604.22L605.252,1604.22C612.887,1604.22 620.243,1601.35 625.86,1596.18L644.451,1579.05Z" style="fill:rgb(35,31,32);fill-rule:nonzero;"/>
        </g>
        <g transform="matrix(4.16667,0,0,4.16667,-1504.29,4177.29)">
            <path d="M833.137,1596.18C838.753,1601.35 846.11,1604.22 853.745,1604.22L954.97,1604.22C963.405,1604.22 970.939,1600.83 976.479,1595.31C980.824,1590.95 983.813,1585.35 984.906,1579.05L814.546,1579.05L833.137,1596.18Z" style="fill:rgb(35,31,32);fill-rule:nonzero;"/>
        </g>
    </g>
</svg>
